<svg width="24" height="24" viewBox="0 0 24 24" fill="none" xmlns="http://www.w3.org/2000/svg">
<path d="M7.25 4.25V2.25" stroke="black" stroke-width="1.5" stroke-miterlimit="10" stroke-linecap="square"/>
<path d="M7.25 22.25V20.25" stroke="black" stroke-width="1.5" stroke-miterlimit="10" stroke-linecap="square"/>
<path d="M17.25 4.25V2.25" stroke="black" stroke-width="1.5" stroke-miterlimit="10" stroke-linecap="square"/>
<path d="M17.25 22.25V20.25" stroke="black" stroke-width="1.5" stroke-miterlimit="10" stroke-linecap="square"/>
<path d="M12.25 4.25V2.25" stroke="black" stroke-width="1.5" stroke-miterlimit="10" stroke-linecap="square"/>
<path d="M12.25 22.25V20.25" stroke="black" stroke-width="1.5" stroke-miterlimit="10" stroke-linecap="square"/>
<path d="M20.25 7.25H22.25" stroke="black" stroke-width="1.5" stroke-miterlimit="10" stroke-linecap="square"/>
<path d="M2.25 7.25H4.25" stroke="black" stroke-width="1.5" stroke-miterlimit="10" stroke-linecap="square"/>
<path d="M20.25 17.25H22.25" stroke="black" stroke-width="1.5" stroke-miterlimit="10" stroke-linecap="square"/>
<path d="M2.25 17.25H4.25" stroke="black" stroke-width="1.5" stroke-miterlimit="10" stroke-linecap="square"/>
<path d="M20.25 12.25H22.25" stroke="black" stroke-width="1.5" stroke-miterlimit="10" stroke-linecap="square"/>
<path d="M2.25 12.25H4.25" stroke="black" stroke-width="1.5" stroke-miterlimit="10" stroke-linecap="square"/>
<path d="M18.25 4.25H6.25C5.14543 4.25 4.25 5.14543 4.25 6.25V18.25C4.25 19.3546 5.14543 20.25 6.25 20.25H18.25C19.3546 20.25 20.25 19.3546 20.25 18.25V6.25C20.25 5.14543 19.3546 4.25 18.25 4.25Z" stroke="black" stroke-width="1.5" stroke-miterlimit="10" stroke-linecap="square"/>
<path d="M13.75 10.75L12.25 7.25L10.75 10.75L7.25 12.25L10.75 13.75L12.25 17.25L13.75 13.75L17.25 12.25L13.75 10.75Z" fill="black"/>
</svg>
