<svg width="48" height="48" viewBox="0 0 48 48" fill="none" xmlns="http://www.w3.org/2000/svg">
<path fill-rule="evenodd" clip-rule="evenodd" d="M38.5 20H36V8.5C36 7.12 34.88 6 33.5 6H14.5C13.12 6 12 7.12 12 8.5V20H9.5C6.46 20 4 22.46 4 25.5V42H44V25.5C43.98 22.46 41.52 20 38.5 20ZM7 39V25.5C6.998 24.12 8.12 23 9.5 23H12V39H7ZM33 39H15V9H33V39ZM36 39V23H38.5C39.88 23 41 24.12 41 25.5V39H36ZM22 13H19V18H22V13ZM26 13H29V18H26V13ZM22 21H19V26H22V21ZM26 21H29V26H26V21ZM22 29H19V34H22V29ZM26 29H29V34H26V29Z" fill="black"/>
</svg>
