<svg width="48" height="48" viewBox="0 0 48 48" fill="none" xmlns="http://www.w3.org/2000/svg">
<path d="M31.5 19.0005C31.32 19.0005 31.16 19.0205 31 19.0205V11.4805C31 7.77047 25.62 4.98047 18.5 4.98047C11.36 4.98047 6 7.76047 6 11.4805V35.4805C6 39.1805 11.36 41.9805 18.5 41.9805C20.38 41.9805 22.22 41.7605 23.88 41.3605C26.04 43.0405 28.72 43.9605 31.48 43.9605C38.36 43.9405 43.96 38.3405 43.98 31.4605C43.96 24.5605 38.36 18.9585 31.48 18.9585L31.5 19.0005ZM18.5 8.00047C24.3 8.00047 28 10.0605 28 11.5005C28 12.9205 24.3 15.0005 18.5 15.0005C12.7 15.0005 9 12.9205 9 11.5005C9 10.0605 12.7 8.00047 18.5 8.00047ZM9 15.8005C11.26 17.1605 14.6 17.9805 18.5 17.9805C22.38 17.9805 25.74 17.1405 28 15.7805V17.4605C28 18.8805 24.3 20.9605 18.5 20.9605C12.7 20.9605 9 18.8805 9 17.4605V15.7605V15.8005ZM9 21.8005C11.26 23.1605 14.6 23.9805 18.5 23.9805C19.6 23.9805 20.66 23.9005 21.68 23.7805V23.7785C20.92 24.7185 20.3 25.7985 19.86 26.9385C19.4 26.9585 18.94 26.9785 18.48 26.9785C12.68 26.9785 8.98 24.8985 8.98 23.4785V21.7785L9 21.8005ZM9 27.8005C11.26 29.1605 14.6 29.9805 18.5 29.9805C18.7 29.9805 18.9 29.9605 19.1 29.9605C19.04 30.4605 19 30.9605 19 31.4805C19 32.0005 19.04 32.4605 19.08 32.9405C18.88 32.9405 18.68 32.9605 18.48 32.9605C12.68 32.9605 8.98 30.8805 8.98 29.4605V27.7605L9 27.8005ZM9 35.4805V33.7805C11.26 35.1405 14.6 35.9605 18.5 35.9605C18.94 35.9605 19.4 35.9405 19.84 35.9205C20.22 36.9405 20.74 37.8805 21.38 38.7605C20.44 38.8805 19.48 38.9405 18.5 38.9405C12.7 38.9405 9 36.8605 9 35.4405V35.4805ZM31.5 40.9805C26.26 40.9805 22 36.7205 22 31.4805C22 26.2405 26.26 21.9805 31.5 21.9805C36.74 21.9805 41 26.2405 41 31.4805C41 36.7205 36.74 40.9805 31.5 40.9805Z" fill="black"/>
</svg>
