<svg width="24" height="24" viewBox="0 0 24 24" fill="none" xmlns="http://www.w3.org/2000/svg">
<path d="M15.75 11.75L18.25 15.75" stroke="currentColor" stroke-width="1.5" stroke-miterlimit="10"/>
<path d="M8.25 11.75L10.75 7.75" stroke="currentColor" stroke-width="1.5" stroke-miterlimit="10"/>
<path d="M12.25 18.25H8.25" stroke="currentColor" stroke-width="1.5" stroke-miterlimit="10"/>
<path d="M12.25 8.25C13.9069 8.25 15.25 6.90685 15.25 5.25C15.25 3.59315 13.9069 2.25 12.25 2.25C10.5931 2.25 9.25 3.59315 9.25 5.25C9.25 6.90685 10.5931 8.25 12.25 8.25Z" stroke="currentColor" stroke-width="1.5" stroke-miterlimit="10" stroke-linecap="square"/>
<path d="M19.25 21.25C20.9069 21.25 22.25 19.9069 22.25 18.25C22.25 16.5931 20.9069 15.25 19.25 15.25C17.5931 15.25 16.25 16.5931 16.25 18.25C16.25 19.9069 17.5931 21.25 19.25 21.25Z" stroke="currentColor" stroke-width="1.5" stroke-miterlimit="10" stroke-linecap="square"/>
<path d="M5.25 21.25C6.90685 21.25 8.25 19.9069 8.25 18.25C8.25 16.5931 6.90685 15.25 5.25 15.25C3.59315 15.25 2.25 16.5931 2.25 18.25C2.25 19.9069 3.59315 21.25 5.25 21.25Z" stroke="currentColor" stroke-width="1.5" stroke-miterlimit="10" stroke-linecap="square"/>
</svg>
