<svg width="24" height="24" viewBox="0 0 24 24" fill="none" xmlns="http://www.w3.org/2000/svg">
<path d="M9.35001 18.25H14.75V17.75C14.75 16.0931 13.4069 14.75 11.75 14.75H10.25L9.42157 13.9216C8.67143 13.1714 7.65401 12.75 6.59315 12.75H6.39074C5.05332 12.75 3.8044 13.4184 3.06253 14.5312L2.25 15.75L2.58333 15.25M18.75 16.25L21.3678 15.6683C22.3337 15.4536 23.25 16.1886 23.25 17.1781C23.25 17.8229 22.8501 18.4 22.2464 18.6264L12.4698 22.2926C11.6771 22.5898 10.8105 22.6279 9.99476 22.4013L2.25 20.25L2.75 20.3889" stroke="currentColor" stroke-width="1.5" stroke-miterlimit="10" stroke-linecap="square"/>
<path d="M2.25 22.25V12.25" stroke="currentColor" stroke-width="1.5" stroke-miterlimit="10" stroke-linecap="square"/>
<path d="M22.75 6.75H17.25H11.75" stroke="currentColor" stroke-width="1.5" stroke-miterlimit="10"/>
<path d="M16.7492 12.25L16.5735 11.9572C14.8144 9.0254 14.6751 5.39813 16.2042 2.34008L16.7492 1.25" stroke="currentColor" stroke-width="1.5" stroke-miterlimit="10"/>
<path d="M17.75 12.25L17.9257 11.9572C19.6848 9.0254 19.8241 5.39813 18.295 2.34008L17.75 1.25" stroke="currentColor" stroke-width="1.5" stroke-miterlimit="10"/>
<path d="M17.25 12.25C20.2876 12.25 22.75 9.78757 22.75 6.75C22.75 3.71243 20.2876 1.25 17.25 1.25C14.2124 1.25 11.75 3.71243 11.75 6.75C11.75 9.78757 14.2124 12.25 17.25 12.25Z" stroke="currentColor" stroke-width="1.5" stroke-miterlimit="10" stroke-linecap="square"/>
</svg>
