<svg width="24" height="24" viewBox="0 0 24 24" fill="none" xmlns="http://www.w3.org/2000/svg">
<path d="M12.75 10.75L16.7485 14.0821C17.7585 14.9238 17.6956 16.4943 16.6215 17.2525L11.5141 20.8577C10.7697 21.3831 9.76435 21.3391 9.06883 20.7505L3.75 16.25H1.25V7.25H5.25" stroke="currentColor" stroke-width="1.5"/>
<path d="M13.7505 9.74978L10.3698 12.3792C9.7304 12.8766 8.82066 12.8199 8.24783 12.2471C7.67732 11.6766 7.61853 10.7714 8.11047 10.1319L11.4515 5.78848C11.9367 5.15768 12.7498 4.8746 13.5218 5.06761L18.2505 6.24979H23.2505V15.2498H21.2505" stroke="currentColor" stroke-width="1.5" stroke-linecap="square"/>
<path d="M12.75 19.7158L11.75 18.75" stroke="currentColor" stroke-width="1.5" stroke-linecap="square"/>
<path d="M15.25 17.75L13.75 16.25" stroke="currentColor" stroke-width="1.5" stroke-linecap="square"/>
</svg>
