<svg width="24" height="24" viewBox="0 0 24 24" fill="none" xmlns="http://www.w3.org/2000/svg">
<path d="M8.25 5.25H3.25C2.145 5.25 1.25 6.145 1.25 7.25V19.25C1.25 20.355 2.145 21.25 3.25 21.25H19.25C20.355 21.25 21.25 20.355 21.25 19.25V13.25" stroke="currentColor" stroke-width="1.5" stroke-miterlimit="10" stroke-linecap="square"/>
<path d="M12.25 3.25V7.25C12.25 8.355 13.145 9.25 14.25 9.25H15.25V12.25L19.25 9.25H21.25C22.355 9.25 23.25 8.355 23.25 7.25V3.25C23.25 2.145 22.355 1.25 21.25 1.25H14.25C13.145 1.25 12.25 2.145 12.25 3.25Z" stroke="currentColor" stroke-width="1.5" stroke-miterlimit="10" stroke-linecap="square"/>
<path d="M7.25 13.25C8.35457 13.25 9.25 12.3546 9.25 11.25C9.25 10.1454 8.35457 9.25 7.25 9.25C6.14543 9.25 5.25 10.1454 5.25 11.25C5.25 12.3546 6.14543 13.25 7.25 13.25Z" stroke="currentColor" stroke-width="1.5" stroke-miterlimit="10" stroke-linecap="square"/>
<path d="M2.25977 20.988C2.39377 18.346 4.57577 16.25 7.25077 16.25C10.0118 16.25 12.2508 18.489 12.2508 21.25" stroke="currentColor" stroke-width="1.5" stroke-miterlimit="10"/>
</svg>
