<svg width="24" height="24" viewBox="0 0 24 24" fill="none" xmlns="http://www.w3.org/2000/svg">
<path d="M22.25 12.25C22.25 17.7728 17.7728 22.25 12.25 22.25C6.72715 22.25 2.25 17.7728 2.25 12.25C2.25 6.72715 6.72715 2.25 12.25 2.25" stroke="currentColor" stroke-width="1.5" stroke-miterlimit="10" stroke-linecap="square"/>
<path d="M18.25 12.25C18.25 15.5637 15.5637 18.25 12.25 18.25C8.93629 18.25 6.25 15.5637 6.25 12.25C6.25 8.93629 8.93629 6.25 12.25 6.25" stroke="currentColor" stroke-width="1.5" stroke-miterlimit="10" stroke-linecap="square"/>
<path d="M12.25 12.2504L16.8734 7.62695L16.7583 7.74205" stroke="currentColor" stroke-width="1.5" stroke-miterlimit="10" stroke-linecap="square"/>
<path d="M19.7504 4.75L18.7505 2.25L16.1504 4.75L16.7504 7.75L19.7504 8.35L22.2505 5.75L19.7504 4.75Z" stroke="currentColor" stroke-width="1.5" stroke-miterlimit="10" stroke-linecap="square"/>
</svg>
