<svg width="24" height="24" viewBox="0 0 24 24" fill="currentColor" xmlns="http://www.w3.org/2000/svg">
<path d="M18.3309 18.3302H15.6609V14.1502C15.6609 13.1502 15.6309 11.8702 14.2709 11.8702C12.8809 11.8702 12.6609 12.9502 12.6609 14.0702V18.3202H9.99094V9.7302H12.5509V10.9002H12.5809C12.9309 10.2202 13.8009 9.5102 15.1009 9.5102C17.8009 9.5102 18.3009 11.2802 18.3009 13.6002V18.3102H18.2909L18.3309 18.3302ZM6.99094 8.5602C6.13094 8.5602 5.44094 7.8602 5.44094 7.0102C5.44094 6.1502 6.13094 5.4602 6.98094 5.4602C7.83094 5.4602 8.52094 6.1502 8.52094 7.0002C8.52094 7.8502 7.82094 8.5402 6.97094 8.5402L6.99094 8.5602ZM8.32094 18.3202H5.64094V9.7302H8.31094V18.3102L8.32094 18.3202ZM19.6409 2.9802H4.29094C3.55094 2.9802 2.96094 3.5602 2.96094 4.2702V19.6702C2.96094 20.3802 3.55094 20.9602 4.28094 20.9602H19.6109C20.3409 20.9602 20.9409 20.3802 20.9409 19.6602V4.2502C20.9409 3.5302 20.3409 2.9502 19.6009 2.9502L19.6409 2.9802Z"/>
</svg>
