<svg width="24" height="24" viewBox="0 0 24 24" fill="currentColor" xmlns="http://www.w3.org/2000/svg">
<path d="M20.7748 7.00035C19.6348 7.00035 18.5748 6.62035 17.7248 5.98035C16.7248 5.23035 16.0448 4.15035 15.8048 2.93535H15.8038C15.7338 2.61535 15.7038 2.30535 15.7038 1.98535H12.4338V15.7954C12.4238 17.0654 11.6038 18.1954 10.3938 18.5954C10.0338 18.7054 9.6638 18.7554 9.2938 18.7354C8.8138 18.7054 8.3438 18.5654 7.9338 18.3154C7.0438 17.7854 6.5038 16.8454 6.4838 15.8254H6.4798C6.4498 14.1854 7.7598 12.8454 9.3898 12.8154C9.7198 12.8054 10.0398 12.8554 10.3598 12.9654V9.65035C10.0498 9.60035 9.7398 9.58035 9.4098 9.58035C7.5998 9.58035 5.9098 10.3304 4.7048 11.6804C2.5248 14.1204 2.6448 17.8404 4.9848 20.1404C6.1548 21.3004 7.7448 21.9504 9.4048 21.9504C11.0548 21.9504 12.6548 21.3004 13.8348 20.1304C14.9948 18.9804 15.6548 17.4104 15.6648 15.7804L15.6448 8.48035C16.2048 8.91035 16.8148 9.27035 17.4748 9.55035C18.4948 9.98035 19.5848 10.2004 20.6948 10.2004V6.95035H20.6848L20.6948 6.94035L20.7748 7.00035Z"/>
</svg>
