<svg width="24" height="24" viewBox="0 0 24 24" fill="currentColor" xmlns="http://www.w3.org/2000/svg">
<path d="M18.5704 13.7099C19.0604 13.7099 19.4604 13.2799 19.4604 12.8099C19.4604 12.3099 19.0604 11.9099 18.5604 11.9099C18.0604 11.9099 17.6604 12.2999 17.6604 12.7999C17.6604 13.2899 18.0504 13.6899 18.5504 13.6899L18.5704 13.7099ZM14.1404 13.7099C14.6304 13.7099 15.0304 13.2799 15.0304 12.8099C15.0304 12.3099 14.6304 11.9099 14.1304 11.9099C13.6304 11.9099 13.2304 12.2999 13.2304 12.7999C13.2304 13.2899 13.6204 13.6899 14.1204 13.6899L14.1404 13.7099ZM20.7004 18.7499C20.5704 18.8199 20.5004 18.9399 20.5204 19.1099C20.5204 19.1499 20.5204 19.1999 20.5404 19.2499C20.6304 19.6599 20.8304 20.3299 20.8304 20.3499C20.8304 20.4199 20.8504 20.4699 20.8504 20.5199C20.8504 20.6399 20.7504 20.7399 20.6204 20.7399C20.5704 20.7399 20.5404 20.7099 20.4904 20.6899L19.0404 19.8499C18.9404 19.7999 18.8104 19.7499 18.6904 19.7499C18.6104 19.7499 18.5404 19.7499 18.4904 19.7699C17.8004 19.9599 17.0904 20.0599 16.3204 20.0599C12.6604 20.0599 9.71039 17.5999 9.71039 14.5499C9.71039 11.4999 12.6504 9.03992 16.3104 9.03992C19.9604 9.03992 22.9104 11.4899 22.9104 14.5399C22.9104 16.1799 22.0204 17.6799 20.6204 18.6899L20.7004 18.7499ZM16.6504 8.08992C16.5504 8.07992 16.4604 8.07992 16.3704 8.07992C12.1904 8.07992 8.76039 10.9399 8.76039 14.5799C8.76039 15.1299 8.83039 15.6599 8.98039 16.1699H8.89039C8.00039 16.1699 7.11039 16.0199 6.30039 15.7999C6.22039 15.7699 6.15039 15.7699 6.07039 15.7699C5.92039 15.7699 5.77039 15.8099 5.65039 15.8899L3.90039 16.8899C3.85039 16.9099 3.80039 16.9299 3.75039 16.9299C3.60039 16.9299 3.47039 16.7999 3.47039 16.6599C3.47039 16.5799 3.49039 16.5299 3.51039 16.4599C3.53039 16.4299 3.75039 15.6199 3.87039 15.1299C3.87039 15.0799 3.89039 14.9999 3.89039 14.9499C3.89039 14.7499 3.79039 14.5999 3.66039 14.4999C1.96039 13.2899 0.900391 11.4999 0.900391 9.51992C0.900391 5.85992 4.46039 2.91992 8.85039 2.91992C12.6104 2.91992 15.7704 5.07992 16.5704 8.00992L16.6504 8.08992ZM11.4904 8.49992C12.0604 8.49992 12.5104 8.01992 12.5104 7.46992C12.5104 6.88992 12.0504 6.43992 11.4804 6.43992C10.9004 6.43992 10.4504 6.88992 10.4504 7.45992C10.4504 8.02992 10.9004 8.47992 11.4704 8.47992L11.4904 8.49992ZM6.23039 8.49992C6.80039 8.49992 7.25039 8.01992 7.25039 7.46992C7.25039 6.88992 6.79039 6.43992 6.22039 6.43992C5.64039 6.43992 5.19039 6.88992 5.19039 7.45992C5.19039 8.02992 5.64039 8.47992 6.21039 8.47992L6.23039 8.49992Z" fill="black"/>
</svg>
