<svg width="24" height="24" viewBox="0 0 24 24" fill="none" xmlns="http://www.w3.org/2000/svg">
<g clip-path="url(#clip0_2412_111271)">
<path d="M1.77148 16.25H14.7505" stroke="black" stroke-width="1.5" stroke-miterlimit="10"/>
<path d="M23.25 12.25C23.25 12.7804 23.0393 13.2891 22.6642 13.6642C22.2891 14.0393 21.7804 14.25 21.25 14.25C20.7196 14.25 20.2109 14.0393 19.8358 13.6642C19.4607 13.2891 19.25 12.7804 19.25 12.25C19.25 10.25 21.25 8.25 21.25 8.25C21.25 8.25 23.25 10.25 23.25 12.25Z" stroke="black" stroke-width="1.5" stroke-miterlimit="10" stroke-linecap="square"/>
<path d="M13.098 23.25H3.39799C3.1225 23.2508 2.84984 23.1946 2.59708 23.085C2.34432 22.9754 2.11693 22.8148 1.92915 22.6133C1.74138 22.4117 1.59727 22.1735 1.50587 21.9136C1.41447 21.6537 1.37774 21.3778 1.39799 21.103L2.11199 11.111C2.14728 10.6043 2.37402 10.1301 2.7462 9.78447C3.11837 9.43885 3.60809 9.24778 4.11599 9.25002H12.384C12.8912 9.24879 13.3799 9.44032 13.7512 9.78584C14.1226 10.1313 14.3487 10.605 14.384 11.111L15.098 21.103C15.1182 21.3778 15.0815 21.6537 14.9901 21.9136C14.8987 22.1735 14.7546 22.4117 14.5668 22.6133C14.379 22.8148 14.1517 22.9754 13.8989 23.085C13.6461 23.1946 13.3735 23.2508 13.098 23.25Z" stroke="black" stroke-width="1.5" stroke-miterlimit="10" stroke-linecap="square"/>
<path d="M3.25 1.25H18.25C19.0456 1.25 19.8087 1.56607 20.3713 2.12868C20.9339 2.69129 21.25 3.45435 21.25 4.25" stroke="black" stroke-width="1.5" stroke-miterlimit="10" stroke-linecap="square"/>
<path d="M11.25 5.25H5.25V9.25H11.25V5.25Z" stroke="black" stroke-width="1.5" stroke-miterlimit="10" stroke-linecap="square"/>
<path d="M8.25 1.25V5.25" stroke="black" stroke-width="1.5" stroke-miterlimit="10"/>
</g>
<defs>
<clipPath id="clip0_2412_111271">
<rect width="24" height="24" fill="white"/>
</clipPath>
</defs>
</svg>
