<svg width="24" height="24" viewBox="0 0 24 24" fill="none" xmlns="http://www.w3.org/2000/svg">
<g clip-path="url(#clip0_2412_111264)">
<path d="M13.0059 21.4928L21.4919 13.0068" stroke="black" stroke-width="1.5" stroke-miterlimit="10"/>
<path d="M6.21289 6.21387L10.1779 10.1789" stroke="black" stroke-width="1.5" stroke-miterlimit="10" stroke-linecap="square"/>
<path d="M18.1315 7.29272C18.3589 6.23813 18.2387 5.13827 17.7889 4.15771C17.339 3.17715 16.5837 2.36862 15.636 1.85312C14.6884 1.33762 13.5992 1.14287 12.5316 1.298C11.464 1.45314 10.4753 1.94982 9.71354 2.71372L2.71354 9.71372C1.94946 10.4758 1.45277 11.4648 1.29784 12.5328C1.14291 13.6007 1.33807 14.6901 1.85412 15.6379C2.37016 16.5856 3.17932 17.3407 4.16043 17.7901C5.14155 18.2395 6.24183 18.359 7.29654 18.1307" stroke="black" stroke-width="1.5" stroke-miterlimit="10" stroke-linecap="square"/>
<path d="M17.25 23.25C20.5637 23.25 23.25 20.5637 23.25 17.25C23.25 13.9363 20.5637 11.25 17.25 11.25C13.9363 11.25 11.25 13.9363 11.25 17.25C11.25 20.5637 13.9363 23.25 17.25 23.25Z" stroke="black" stroke-width="1.5" stroke-miterlimit="10"/>
</g>
<defs>
<clipPath id="clip0_2412_111264">
<rect width="24" height="24" fill="white"/>
</clipPath>
</defs>
</svg>
