<svg width="24" height="24" viewBox="0 0 24 24" fill="none" xmlns="http://www.w3.org/2000/svg">
<path d="M12.25 6.25C13.3546 6.25 14.25 5.35457 14.25 4.25C14.25 3.14543 13.3546 2.25 12.25 2.25C11.1454 2.25 10.25 3.14543 10.25 4.25C10.25 5.35457 11.1454 6.25 12.25 6.25Z" stroke="black" stroke-width="1.5" stroke-miterlimit="10" stroke-linecap="square"/>
<path d="M12.25 22.25C13.3546 22.25 14.25 21.3546 14.25 20.25C14.25 19.1454 13.3546 18.25 12.25 18.25C11.1454 18.25 10.25 19.1454 10.25 20.25C10.25 21.3546 11.1454 22.25 12.25 22.25Z" stroke="black" stroke-width="1.5" stroke-miterlimit="10" stroke-linecap="square"/>
<path d="M17.446 15.2503C16.8937 16.2069 17.2214 17.4301 18.178 17.9823C19.1346 18.5346 20.3578 18.2069 20.9101 17.2503C21.4624 16.2937 21.1346 15.0705 20.178 14.5182C19.2214 13.966 17.9983 14.2937 17.446 15.2503Z" stroke="black" stroke-width="1.5" stroke-miterlimit="10" stroke-linecap="square"/>
<path d="M10.25 12.25C10.25 13.3546 11.1454 14.25 12.25 14.25C13.3546 14.25 14.25 13.3546 14.25 12.25C14.25 11.1454 13.3546 10.25 12.25 10.25C11.1454 10.25 10.25 11.1454 10.25 12.25Z" stroke="black" stroke-width="1.5" stroke-miterlimit="10" stroke-linecap="square"/>
<path d="M3.59055 7.25033C3.03827 8.20692 3.36602 9.4301 4.3226 9.98239C5.27919 10.5346 6.50237 10.2069 7.05465 9.25034C7.60694 8.29375 7.27919 7.07057 6.3226 6.51828C5.36602 5.966 4.14284 6.29375 3.59055 7.25033Z" stroke="black" stroke-width="1.5" stroke-miterlimit="10" stroke-linecap="square"/>
<path d="M17.446 9.25033C17.9983 10.2069 19.2214 10.5347 20.178 9.98239C21.1346 9.4301 21.4624 8.20692 20.9101 7.25033C20.3578 6.29375 19.1346 5.966 18.178 6.51828C17.2214 7.07057 16.8937 8.29375 17.446 9.25033Z" stroke="black" stroke-width="1.5" stroke-miterlimit="10" stroke-linecap="square"/>
<path d="M3.59055 17.2503C4.14284 18.2069 5.36602 18.5347 6.3226 17.9824C7.27919 17.4301 7.60694 16.2069 7.05465 15.2503C6.50237 14.2937 5.27919 13.966 4.3226 14.5183C3.36602 15.0706 3.03827 16.2937 3.59055 17.2503Z" stroke="black" stroke-width="1.5" stroke-miterlimit="10" stroke-linecap="square"/>
</svg>
