<svg width="20" height="20" viewBox="0 0 20 20" fill="none" xmlns="http://www.w3.org/2000/svg">
<g clip-path="url(#clip0_2451_18788)">
<path d="M16.6081 6.66634H17.4914C18.4081 6.66634 19.1581 7.40801 19.1581 8.33301V11.6663C19.1581 12.583 18.4081 13.333 17.4914 13.333H16.5997C16.1831 16.6163 13.3831 19.1663 9.98307 19.1663V17.4997C12.7414 17.4997 14.9831 15.258 14.9831 12.4997V7.49967C14.9831 4.73301 12.7414 2.49967 9.98307 2.49967C7.21641 2.49967 4.98307 4.73301 4.98307 7.49967V13.333H2.48307C1.55807 13.333 0.816406 12.583 0.816406 11.6663V8.33301C0.816406 7.40801 1.55807 6.66634 2.48307 6.66634H3.36641C3.77474 3.37467 6.57474 0.833008 9.97474 0.833008C13.3664 0.833008 16.1747 3.37467 16.5831 6.66634H16.6081ZM2.49141 8.33301V11.6663H3.32474V8.33301H2.49141ZM16.6581 8.33301V11.6663H17.4914V8.33301H16.6581ZM6.44974 13.1497L7.33307 11.733C8.09974 12.208 9.00807 12.4913 9.98307 12.4913C10.9497 12.4913 11.8581 12.208 12.6331 11.7247L13.5164 13.133C12.4914 13.7747 11.2747 14.1413 9.97474 14.1413C8.67474 14.1413 7.45807 13.7663 6.43307 13.1247L6.44974 13.1497Z" fill="black"/>
</g>
<defs>
<clipPath id="clip0_2451_18788">
<rect width="20" height="20" fill="white"/>
</clipPath>
</defs>
</svg>
