<svg width="71" height="14" viewBox="0 0 71 14" fill="none" xmlns="http://www.w3.org/2000/svg">
<g clip-path="url(#clip0_2442_207215)">
<path d="M69.5107 3.55125C68.5563 1.79465 66.5323 0.750456 65.2334 0.406944C63.9355 0.0634326 60.8673 0 59.0092 0H50.1482C49.9237 0 49.7422 0.181515 49.7422 0.405968V2.07668C49.7422 2.30114 49.9237 2.48265 50.1482 2.48265H58.0157C60.9561 2.48265 63.2094 2.55877 64.2878 2.81641C65.3661 3.07404 66.2132 3.62834 66.9129 4.57007C67.6126 5.5118 67.5336 6.74532 67.5336 6.74532C67.5336 6.74532 67.6136 7.97884 66.9129 8.92057C66.2132 9.8623 65.3661 10.4166 64.2878 10.6742C63.2094 10.9319 60.9561 11.008 58.0157 11.008H50.1482C49.9237 11.008 49.7422 11.1895 49.7422 11.414V13.0847C49.7422 13.3091 49.9237 13.4906 50.1482 13.4906H59.0092C60.8673 13.4906 63.9355 13.4272 65.2334 13.0837C66.5313 12.7402 68.5553 11.696 69.5107 9.93939C70.4651 8.1828 70.3988 6.7463 70.3988 6.7463C70.3988 6.7463 70.4651 5.30979 69.5107 3.5532V3.55125Z" fill="#ED1B23"/>
<path d="M32.3623 5.9002H28.7456C27.9249 5.9002 26.7792 5.84263 26.7792 4.10555V0.335705C26.7792 0.150286 26.6289 0 26.4435 0H24.1814C23.996 0 23.8457 0.150286 23.8457 0.335705V4.573C23.8457 5.9002 24.0301 6.9405 24.5649 7.50358C25.0997 8.06667 26.2356 8.38188 27.515 8.38188H32.3632C32.5487 8.38188 32.6989 8.23159 32.6989 8.04618V6.23591C32.6989 6.05049 32.5487 5.9002 32.3632 5.9002H32.3623Z" fill="#ED1B23"/>
<path d="M46.2065 0H43.9444C43.7589 0 43.6087 0.150286 43.6087 0.335705V4.10458C43.6087 5.84263 42.463 5.89923 41.6422 5.89923H34.4646C34.2792 5.89923 34.1289 6.04952 34.1289 6.23493V13.1432C34.1289 13.3286 34.2792 13.4789 34.4646 13.4789H37.2234C37.4089 13.4789 37.5591 13.3286 37.5591 13.1432V10.5279V8.71759C37.5591 8.53217 37.7094 8.38188 37.8948 8.38188H42.8738C44.1532 8.38188 45.2891 8.06667 45.8239 7.50359C46.3587 6.9405 46.5431 5.9002 46.5431 4.573V0.335705C46.5431 0.150286 46.3929 0 46.2074 0H46.2065Z" fill="#ED1B23"/>
<path d="M19.4689 6.74044C19.4689 6.65944 19.5167 6.58723 19.5167 6.58723C20.2233 5.72845 20.5922 5.11657 20.5922 3.86939C20.5922 2.6222 19.7422 1.40332 18.7302 0.78266C17.7182 0.161997 16.7735 0 13.2984 0H0.405968C0.181515 0 0 0.181515 0 0.405968V2.07668C0 2.30114 0.181515 2.48265 0.405968 2.48265H15.6093C16.6115 2.48265 17.7982 2.87398 17.7982 4.02943C17.7982 5.18488 16.4203 5.51863 15.5517 5.51863H0.405968C0.181515 5.51863 0 5.70015 0 5.9246V7.55726C0 7.78171 0.181515 7.96323 0.405968 7.96323H15.5517C16.4203 7.96323 17.7982 8.29698 17.7982 9.45243C17.7982 10.6079 16.6115 10.9992 15.6093 10.9992H0.405968C0.181515 10.9992 0 11.1807 0 11.4052V13.0759C0 13.3003 0.181515 13.4819 0.405968 13.4819H13.2984C16.7735 13.4819 17.7182 13.3199 18.7302 12.6992C19.7422 12.0785 20.5922 10.8597 20.5922 9.61247C20.5922 8.36529 20.2233 7.75439 19.5167 6.89463C19.5167 6.89463 19.4689 6.82339 19.4689 6.74142V6.74044Z" fill="#ED1B23"/>
</g>
<defs>
<clipPath id="clip0_2442_207215">
<rect width="70.3984" height="13.4897" fill="white"/>
</clipPath>
</defs>
</svg>
