<svg width="80" height="17" viewBox="0 0 80 17" fill="none" xmlns="http://www.w3.org/2000/svg">
<g clip-path="url(#clip0_2442_207256)">
<path d="M39.5586 0.00585938V17.0007H49.8767C56.494 17.0007 59.3197 12.3251 59.3197 8.50087C59.3197 4.67668 56.494 0.00585938 49.8767 0.00585938H39.5586ZM43.9427 13.3218V3.61448H50.7326C52.5481 3.61448 55.0679 5.56973 55.0679 8.50608C55.0679 11.4424 52.5289 13.3213 50.7326 13.3213H43.9427V13.3218Z" fill="#0066B3"/>
<path d="M26.4913 3.61383V17H31.0682V3.61383H38.657V0H18.9062V3.61383H26.4913Z" fill="#0066B3"/>
<path d="M64.6855 0H60.0996V17H64.6855V0Z" fill="#0066B3"/>
<path d="M64.8105 8.12461L73.4391 0H79.5154L70.4683 8.12461L79.9999 17H73.6525L64.8105 8.12461Z" fill="#0066B3"/>
<path d="M13.2431 7.18589L9.69434 3.59375L6.14258 7.18589H13.2431Z" fill="#0066B3"/>
<path d="M6.14258 0L9.69434 3.59301L13.2431 0H6.14258Z" fill="#0066B3"/>
<path d="M9.69336 13.4048L14.5388 12.0932L13.2421 7.18555L9.69336 13.4048Z" fill="#0066B3"/>
<path d="M9.69354 13.4044L3.5479 17.0004H15.8383L9.69397 13.4044M0 10.7764L6.14179 0V7.18515L0 10.7764ZM19.3871 10.7764L13.2423 0V7.18515L19.3867 10.7764" fill="#0066B3"/>
<path d="M19.3878 10.7773L14.541 12.0937L15.8386 17.0009L19.3878 10.7773Z" fill="#0066B2"/>
<path d="M6.14179 7.18555L4.84763 12.0936L9.69311 13.4048L6.14179 7.18555ZM3.54747 17.0004L4.84763 12.0932L0 10.7768L3.54747 17.0008V17.0004Z" fill="#0066B3"/>
</g>
<defs>
<clipPath id="clip0_2442_207256">
<rect width="80" height="17" fill="white"/>
</clipPath>
</defs>
</svg>
