<svg width="73" height="15" viewBox="0 0 73 15" fill="none" xmlns="http://www.w3.org/2000/svg">
<g clip-path="url(#clip0_2442_207208)">
<path d="M35.6107 0.423835V0.495747V1.79591C35.6107 1.86811 35.6854 2.01167 35.8336 2.01167H41.0957C41.3181 2.01167 41.5401 2.22799 41.5401 2.44459V14.5748H47.6925C47.8408 14.5748 47.8402 14.5032 47.8402 14.4309L47.7664 2.37267C47.7664 2.15607 47.9884 1.93975 48.2108 1.93975H53.5481V0.423828H44.431L35.6107 0.423835ZM8.33617 0.495747C4.11145 0.495747 0.478516 3.67255 0.478516 7.71576C0.478516 11.6868 4.18557 14.5029 8.33617 14.5029H15.748H17.0812H18.5636C19.6012 14.5029 20.4162 13.9253 20.861 13.0589L21.0101 12.8417L22.2695 10.5318H28.9401L30.4225 13.6356C30.6448 14.141 31.2375 14.5026 31.9786 14.5748H36.9454L31.3866 1.65067C31.0901 1.00087 30.4227 0.495747 29.6074 0.495747H26.0492C25.308 0.495747 24.716 1.00087 24.3454 1.65067L18.7127 11.9758C18.4162 12.5535 17.8224 12.9136 17.0812 12.9136H12.1897H11.5962C8.48325 12.9136 5.96353 10.4591 5.96353 7.42668C5.96353 4.39427 8.48325 1.93975 11.5962 1.93975H12.1897H17.5256H17.9715H18.1192C18.2674 1.93975 18.2668 1.86813 18.2668 1.79591V1.72259V0.495747H17.1551H8.33617ZM54.9552 0.495747V12.6259C54.9552 13.6367 55.7705 14.4309 56.8082 14.4309H72.3729C72.5212 14.4309 72.522 14.286 72.522 14.2138V12.8417H62.8129V12.9869C62.5905 12.9147 62.3673 12.8414 62.2932 12.5526V0.495747H54.9552ZM25.6786 5.40592C26.1974 5.40592 26.6422 5.69472 26.7904 6.12792L28.1251 8.9426H23.0107L24.6421 5.98268C24.8645 5.62167 25.308 5.40592 25.6786 5.40592Z" fill="#0028AA"/>
</g>
<defs>
<clipPath id="clip0_2442_207208">
<rect width="73" height="15" fill="white"/>
</clipPath>
</defs>
</svg>
