<svg width="82" height="43" viewBox="0 0 82 43" fill="none" xmlns="http://www.w3.org/2000/svg">
<path fill-rule="evenodd" clip-rule="evenodd" d="M2.78657 21.1003C2.78657 10.5113 19.7116 1.89578 40.5195 1.89578C61.3275 1.89578 78.2525 10.5113 78.2525 21.1003C78.2525 31.6893 61.3229 40.3048 40.5195 40.3048C19.7116 40.3048 2.78657 31.6893 2.78657 21.1003ZM81.0391 21.1003C81.0391 9.44238 62.8989 0 40.5195 0C18.1401 0 0 9.44694 0 21.1049C0 32.7628 18.1401 42.2097 40.5195 42.2097C62.8989 42.2097 81.0391 32.7628 81.0391 21.1049V21.1003Z" fill="#E60012"/>
<path fill-rule="evenodd" clip-rule="evenodd" d="M13.0378 27.0359H10.0137V14.4004H13.0378V19.1467H17.6882V14.4004H20.7123V27.0359H17.6882V21.6044H13.0378V27.0359Z" fill="#E60012"/>
<path fill-rule="evenodd" clip-rule="evenodd" d="M32.6757 24.3848C31.9403 26.9841 29.5603 27.3815 27.8381 27.3815C26.6138 27.3815 22.8359 27.112 22.8359 22.4388C22.8359 19.2593 25.0149 17.5234 28.0573 17.5234C32.5798 17.5234 32.8219 21.4977 32.8585 22.6169L32.8767 23.1194H25.7321C25.7504 24.0056 26.1524 25.5406 27.966 25.5406C28.7745 25.5406 29.6151 25.1979 29.8526 24.3848H32.6757ZM29.9805 21.5845C29.944 19.6157 28.6969 19.3644 28.0208 19.3644C27.6553 19.3644 26.0062 19.3279 25.7321 21.5845H29.9851H29.9805Z" fill="#E60012"/>
<path fill-rule="evenodd" clip-rule="evenodd" d="M37.3807 18.967C38.1344 17.9574 39.3587 17.5234 40.6058 17.5234C41.8529 17.5234 43.7213 17.8661 43.7213 21.283V27.0389H40.9393V21.7307C40.9393 20.8262 40.8479 19.3644 39.3633 19.3644C37.5314 19.3644 37.4949 21.4749 37.4949 21.8723V27.0389H34.7129V17.866H37.3898V18.967H37.3807Z" fill="#E60012"/>
<path fill-rule="evenodd" clip-rule="evenodd" d="M51.9491 17.8676H55.2975L51.6202 21.4765L55.631 27.0359H52.3145L49.7107 23.2306L48.7605 24.1854V27.0359H45.9785V14.4004H48.7605V21.3531L51.9491 17.8676Z" fill="#E60012"/>
<path fill-rule="evenodd" clip-rule="evenodd" d="M59.0212 21.5845C59.2953 19.3279 60.9444 19.3644 61.3144 19.3644C61.9905 19.3644 63.233 19.6157 63.2742 21.5845H59.0258H59.0212ZM63.1417 24.3848C62.9041 25.1979 62.059 25.5406 61.255 25.5406C59.4415 25.5406 59.0349 24.0056 59.0212 23.1194H66.1658L66.1475 22.6169C66.111 21.4977 65.8734 17.5234 61.3464 17.5234C58.3086 17.5234 56.125 19.2593 56.125 22.4388C56.125 27.112 59.8983 27.3815 61.1271 27.3815C62.8493 27.3815 65.2293 26.9841 65.9602 24.3848H63.1417Z" fill="#E60012"/>
<path fill-rule="evenodd" clip-rule="evenodd" d="M70.7781 14.4004V27.0359H67.9961V14.4004H70.7781Z" fill="#E60012"/>
</svg>
