<svg width="60" height="57" viewBox="0 0 60 57" fill="none" xmlns="http://www.w3.org/2000/svg">
<g clip-path="url(#clip0_2442_207326)">
<path d="M47.0819 0C45.6814 2.52344 44.5422 5.18435 43.1449 7.70943C42.0863 9.63555 40.952 11.5486 39.4496 13.1703C38.6786 14 37.7548 14.7135 36.6813 15.1063C34.2419 16.0276 31.6003 16.1553 29.0194 16.2535C26.2282 16.2845 23.437 16.0996 20.6622 15.7903C19.0446 15.661 17.414 15.576 15.7948 15.7265C13.6972 15.8411 11.5241 16.4695 9.97724 17.9456C8.83313 18.9945 8.13779 20.4919 8.0293 22.0318C7.25176 21.2251 6.02875 21.3003 5.0293 21.5687C5.27258 18.8833 6.1093 16.2862 7.17943 13.8217C7.763 12.4847 8.39587 11.1509 9.29505 9.9874C11.4041 7.17921 14.5208 5.27272 17.8167 4.14355C21.6682 2.82783 25.7778 2.37125 29.8315 2.47271C31.0808 2.4858 32.317 2.69527 33.563 2.79346C36.6468 3.02911 39.7948 3.05693 42.8161 2.30906C44.3909 1.89504 46.0003 1.26499 47.0819 0Z" fill="#004C9A"/>
<path d="M26.4937 21.0834C27.3501 20.2913 28.3677 19.5353 29.5627 19.4011C32.469 19.3896 35.3737 19.4044 38.28 19.3945C37.3578 19.8151 36.7578 20.6693 36.1693 21.4549C34.5978 23.6968 33.3616 26.1499 32.1929 28.6177C31.3562 30.2836 30.4636 31.9365 29.3145 33.4126C27.8614 35.27 25.9463 36.7706 23.7797 37.7198C22.6307 38.2385 21.3995 38.592 20.1337 38.6525C17.28 38.8342 14.3721 38.2467 11.8126 36.9752C8.35397 35.1079 6.29425 31.4112 5.43945 27.698C6.27945 28.0024 7.19343 27.7455 7.91343 27.2742C8.16165 28.0482 8.47726 28.8092 8.96877 29.4621C9.9074 30.7631 11.3277 31.6043 12.7611 32.2703C13.9973 32.7122 15.3567 32.7482 16.6471 32.56C17.9079 32.3734 19.1573 31.8546 20.0416 30.9169C21.4734 29.4261 22.509 27.608 23.3901 25.7555C24.1249 24.029 25.154 22.4089 26.4937 21.0834Z" fill="#004C9A"/>
<path d="M40.7744 20.0096C41.3678 19.7691 42.0204 19.7707 42.6517 19.7429C44.2906 19.6594 45.9328 19.6496 47.5766 19.6529C45.6451 21.0471 44.3054 23.1042 43.4358 25.2889C42.7322 25.1121 41.9761 25.0761 41.2873 25.3363C39.992 25.7831 39.0188 27.071 39.0254 28.4506C38.9728 29.5454 39.5498 30.5845 40.398 31.2538C38.8347 34.9441 36.2785 38.2661 32.8889 40.4606C30.9739 41.7191 28.832 42.6273 26.5996 43.1543C26.2807 43.2279 25.9569 43.3228 25.6248 43.2999C25.0955 43.2361 24.5629 43.2688 24.0336 43.3179C22.8878 43.4177 21.7437 43.259 20.6013 43.2279C20.8593 43.3081 21.1191 43.3866 21.3821 43.4537C18.0862 43.1559 14.9235 41.7469 12.4347 39.5868C11.6654 38.8765 10.8977 38.1499 10.3125 37.2777C12.673 39.1056 15.655 40.045 18.632 40.0908C20.6046 40.1333 22.5821 39.8584 24.4692 39.2922C25.0133 39.1367 25.5229 38.8896 26.0128 38.6147C29.1788 36.7524 31.7695 33.9671 33.4676 30.7285C34.0791 29.4406 34.6577 28.1396 35.2495 26.8435C36.0303 25.0467 36.9574 23.2793 38.2857 21.8196C38.9876 21.0668 39.8046 20.3876 40.7744 20.0129V20.0096Z" fill="#004C9A"/>
<path d="M51.2282 19.8727C52.8211 19.6157 54.4534 19.5863 56.0578 19.7598C54.8627 20.9298 53.8091 22.2537 53.0249 23.7298C50.6611 27.8521 48.2841 31.9678 45.8628 36.0558C43.7965 39.2371 40.8655 41.8996 37.3789 43.4575C34.0189 44.9729 30.2693 45.5342 26.6003 45.3149C24.9302 45.2658 23.288 44.9353 21.6523 44.6211C22.9839 44.5916 24.3252 44.7094 25.6534 44.5409C29.2567 44.2299 32.7499 42.8308 35.5756 40.5888C38.4655 38.2961 40.7471 35.2588 42.2052 31.8811C43.8178 32.0088 45.3811 30.8223 45.7164 29.2546C45.9564 28.2923 45.6852 27.2614 45.1049 26.4709C46.0123 24.7281 47.0167 23.0311 48.1608 21.4322C48.848 20.4389 50.0973 20.0838 51.2282 19.8727Z" fill="#004C9A"/>
<path d="M5.96014 22.116C6.87576 22.0719 7.79795 22.5595 8.22699 23.3729C8.5459 23.89 8.54754 24.5282 8.45713 25.1092C8.26973 25.9896 7.52672 26.7064 6.6522 26.9126C5.9059 27.1171 5.08398 26.8831 4.49384 26.402C3.69822 25.7474 3.41877 24.5626 3.82151 23.6183C4.15521 22.7526 5.03631 22.1602 5.9585 22.1177L5.96014 22.116Z" fill="#004B9A"/>
<path d="M41.9236 26.2661C43.2041 26.0059 44.5586 27.0026 44.6852 28.297C44.9005 29.6258 43.7548 30.9874 42.3904 30.9465C41.1016 31.0381 39.8984 29.8615 39.9805 28.5752C39.9279 27.4608 40.8353 26.4462 41.9236 26.2661Z" fill="#004B9A"/>
<path d="M20.6016 43.2223C21.7457 43.2534 22.8881 43.4138 24.0339 43.3124C24.5632 43.2633 25.0958 43.2305 25.6251 43.2943L25.8142 43.3107C24.3577 43.6036 22.8503 43.6396 21.3824 43.4449C21.1194 43.3811 20.858 43.2993 20.6016 43.2207V43.2223Z" fill="#0C4289"/>
<path d="M7.34907e-05 48.7518C0.910758 48.7518 1.82144 48.7387 2.73377 48.7616C3.0609 50.0429 3.45048 51.3079 3.79733 52.586C3.8598 52.7906 3.89925 53.0181 4.06364 53.1752C4.35788 51.6974 4.69816 50.2311 4.98583 48.755C5.44939 48.7469 5.91459 48.7452 6.38144 48.7632C6.65103 50.2541 6.90583 51.7563 7.28062 53.2259C7.69651 51.74 8.12391 50.2557 8.5135 48.7632C9.5409 48.7387 10.5699 48.755 11.599 48.7501C10.7162 51.4978 9.84501 54.2487 8.96555 56.9963C8.22583 56.9898 7.4861 57.0029 6.74638 56.9881C6.48501 55.6315 6.16446 54.2896 5.88336 52.9379C5.75021 52.9346 5.6187 52.9346 5.48555 52.933C5.14199 54.283 4.83459 55.6413 4.50254 56.9947C3.76281 56.993 3.0198 56.9914 2.27843 56.998C1.53706 54.5842 0.807197 52.1655 0.0658269 49.75C-0.0262279 49.4244 0.00336116 49.084 7.34907e-05 48.7518Z" fill="#004B99"/>
<path d="M21.1891 48.7549C22.2543 48.7484 23.3212 48.7435 24.3864 48.7549C25.1919 50.2097 26.0286 51.6449 26.8045 53.1145C26.8341 51.6613 26.8209 50.2065 26.816 48.7533C27.8204 48.7484 28.8231 48.75 29.8275 48.7533C29.8226 51.5009 29.8176 54.2486 29.8291 56.9946C28.8708 56.9962 27.9108 56.9946 26.9508 56.9978C26.0565 55.4546 25.1837 53.9016 24.2713 52.3699C24.268 53.9131 24.2648 55.4563 24.273 56.9978C23.2456 56.9913 22.2165 57.0027 21.1875 56.9913C21.2023 54.2453 21.2023 51.5009 21.1891 48.7549Z" fill="#004B99"/>
<path d="M31.4766 48.7526C32.5401 48.7494 33.602 48.7461 34.6656 48.7526C34.6557 49.8802 34.6656 51.0061 34.659 52.1352C35.3692 52.1418 36.0793 52.1369 36.7878 52.1434C36.7829 51.0093 36.7812 49.8785 36.7878 48.7461C37.8546 48.7592 38.9215 48.7396 39.9883 48.7592C39.9768 51.5019 39.9768 54.2463 39.9883 56.9874C38.9198 57.0037 37.8546 56.989 36.7845 56.9972C36.7845 55.904 36.7812 54.8109 36.7862 53.7177C36.0777 53.7193 35.3692 53.7144 34.6623 53.7242C34.6672 54.8141 34.6574 55.9057 34.6656 56.9956C33.6053 56.9939 32.5434 56.9939 31.4831 56.9956C31.4799 54.2479 31.4881 51.5003 31.4766 48.7526Z" fill="#004B99"/>
<path d="M41.4024 48.7662C42.4758 48.7269 43.5509 48.7597 44.6259 48.7466C44.6161 50.9902 44.6194 53.2321 44.6226 55.4758C45.3426 55.4774 46.0626 55.4725 46.7826 55.479C46.7728 53.2354 46.7843 50.9935 46.7777 48.7515C47.8446 48.7466 48.9114 48.7515 49.9783 48.7466C49.975 51.0851 49.9635 53.422 49.9832 55.7605C49.2994 56.15 48.5909 56.4953 47.9021 56.8782C47.621 57.0517 47.2774 56.9813 46.9668 56.996C45.9443 56.9748 44.9202 57.0206 43.901 56.978C43.0824 56.6229 42.2868 56.2056 41.501 55.7818C41.2857 55.1697 41.4813 54.466 41.45 53.818C41.3629 52.1357 41.5503 50.4452 41.4007 48.7646L41.4024 48.7662Z" fill="#004B9A"/>
<path d="M18.2469 48.7576C16.6113 48.7395 14.9789 48.7608 13.3433 48.7461C12.5724 51.4921 11.8293 54.2463 11.0469 56.9906C12.1121 56.9988 13.1789 56.9906 14.2458 56.9972C14.3674 56.4997 14.4858 56.0022 14.5762 55.4998C15.4359 55.4884 16.2956 55.4916 17.1554 55.4998C17.2606 56.0006 17.3789 56.4997 17.5055 56.9956C18.574 56.989 19.6441 56.9988 20.7126 56.9906C19.8792 54.2496 19.0573 51.5019 18.2469 48.7543V48.7576ZM14.8836 53.9108C15.1384 52.7031 15.3373 51.4856 15.6003 50.2811C15.7236 50.2844 15.8469 50.2877 15.9685 50.2942C16.2578 51.497 16.4995 52.708 16.8151 53.9043C16.1724 53.919 15.5263 53.9174 14.8836 53.9124V53.9108Z" fill="#004C9A"/>
<path d="M57.5293 48.7482C55.8937 48.7564 54.2564 48.7367 52.6175 48.7596C51.8761 51.5089 51.1002 54.2484 50.3457 56.9927C51.4109 57.0025 52.4745 56.9878 53.5413 56.9976C53.658 56.4952 53.7698 55.9912 53.8865 55.4904C54.738 55.5035 55.5895 55.4904 56.4427 55.4986C56.5594 55.9977 56.6745 56.4969 56.7863 56.996C57.858 56.996 58.9298 57.0042 60 56.9927C59.1682 54.2484 58.3495 51.4991 57.5293 48.7498V48.7482ZM54.1709 53.9112C54.4241 52.6986 54.6394 51.4778 54.886 50.2635C54.9747 50.275 55.1539 50.2946 55.2443 50.3061C55.5682 51.4974 55.7983 52.7133 56.0942 53.9129C55.4531 53.9178 54.812 53.9162 54.1726 53.9129L54.1709 53.9112Z" fill="#004C9A"/>
</g>
<defs>
<clipPath id="clip0_2442_207326">
<rect width="60" height="57" fill="white"/>
</clipPath>
</defs>
</svg>
