<svg width="74" height="25" viewBox="0 0 74 25" fill="none" xmlns="http://www.w3.org/2000/svg">
<g clip-path="url(#clip0_2442_207345)">
<path fill-rule="evenodd" clip-rule="evenodd" d="M55.1295 21.0541H55.3346V20.9699H55.4608V20.9278L55.5449 20.8437V20.6806H55.4608V20.5965H55.4187L55.3346 20.5123H54.8402V21.0488H55.1295M54.8402 21.9219H54.593V20.3546H55.5397V20.3966H55.6607V20.4808H55.7027V20.607H55.7869V20.9384L55.7027 20.9804V21.0646H55.6607V21.1067H55.5765V21.1908H55.4555L55.4135 21.2329H55.3293L55.7816 21.9324H55.5344L55.1242 21.2329H54.8349V21.9324L54.8402 21.9219ZM55.1295 22.2479H55.4608L55.5449 22.2059H55.587L55.6712 22.1217H55.7132L55.8342 22.0007H55.9184V21.9166H56.0025V21.8745L56.0446 21.7904L56.1287 21.7483V21.6641L56.1708 21.6221V21.5379L56.255 21.4958V20.7964L56.1708 20.7122V20.5912L56.1287 20.5071L56.0446 20.465V20.3809H56.0025V20.3388L55.9184 20.2546L55.8342 20.2126H55.7921V20.1284H55.708L55.6659 20.0863H55.5818L55.5397 20.0022H55.3346V19.9601H55.0874C54.8455 19.9391 54.998 20.018 54.756 20.0022L54.714 20.0863H54.5877V20.1284H54.5036L54.3826 20.2546H54.2985V20.3388L54.1775 20.4598V20.5018H54.1354V20.586L54.0513 20.6701V20.8332H54.0092V21.3696L54.0513 21.4117V21.5327L54.1354 21.6168V21.6589L54.1775 21.743V21.7851H54.2617V21.8693L54.3826 21.9955H54.4247V22.0376H54.5089L54.593 22.1217L54.6351 22.2059H54.756V22.2479H55.1295ZM53.7305 21.0961V20.8069L53.8146 20.7227V20.6018L53.8988 20.5176V20.4755L53.9408 20.3914L54.025 20.3493V20.2652L54.2722 20.018H54.3143L54.3984 19.9759L54.4405 19.8917H54.5246L54.6088 19.8076H54.6509L54.735 19.7655H55.3503C55.7448 19.7445 55.4608 19.8181 55.6817 19.8076L55.7238 19.8917H55.8079L55.85 19.9759H55.9341L56.0183 20.018H56.0604V20.1021L56.1445 20.1442H56.1866L56.2707 20.2283V20.2704L56.3128 20.3546L56.397 20.3966V20.4808L56.439 20.5229V20.6859L56.5232 20.728C56.5127 20.9594 56.5916 20.8595 56.5653 21.2224V21.3854L56.5232 21.4275V21.5484L56.439 21.6326V21.7588L56.397 21.8009V21.885L56.3128 21.9271H56.2707V22.0113L56.1866 22.0533L56.1445 22.1375H56.0604V22.2216L56.0183 22.2637H55.9341L55.85 22.3479H55.8079L55.7238 22.3899H55.6817L55.5975 22.4741H55.4766L55.4345 22.5162H55.1032C54.6929 22.5372 54.9086 22.4583 54.6509 22.4741L54.6088 22.3899H54.5246L54.4405 22.3479H54.3984V22.2637H54.3143L54.1933 22.1427H54.1512V22.0586L54.0671 22.0165L54.025 21.9324L53.9408 21.8903L53.8988 21.8062V21.7641L53.8146 21.6799V21.559L53.7305 21.5169V21.1067V21.0961Z" fill="#E31A22"/>
<path fill-rule="evenodd" clip-rule="evenodd" d="M36.9996 24.3508L73.9992 12.1965L36.9996 0L0 12.1965L36.9996 24.3508Z" fill="#E31A22"/>
<path fill-rule="evenodd" clip-rule="evenodd" d="M21.7956 15.1205C22.9158 15.0311 24.0308 15.2047 25.1353 15.0785H25.2983L25.4614 14.9943L25.5876 14.9522L25.7927 14.8681H25.9137L26.0399 14.826L26.1609 14.6998L26.4081 14.5368L26.5343 14.4947L26.6973 14.3737L26.7394 14.2896L26.8604 14.1686L26.9445 14.0476L27.0707 14.0056C27.1181 13.7531 27.3968 13.3587 27.523 13.101V12.9747L27.5651 12.8538V12.4015L27.6493 12.2805V12.0754L27.5651 11.9544V11.5021L27.523 11.3811V11.2602L27.4389 11.1339V11.013L27.3968 10.892L27.2338 10.6448L27.1917 10.5239L27.1075 10.4397L27.0655 10.3135L26.9392 10.2714L26.8551 10.1084L26.7341 10.0663L26.529 9.86118L26.4028 9.81911L26.2398 9.73496L26.1135 9.69288L25.9926 9.60874C24.6619 9.13013 23.2209 9.52458 21.7903 9.36154V15.1311M19.4078 7.86789V7.74166H19.3658V7.69959H19.2816V7.61544C18.9766 7.63121 19.3395 7.55758 18.9135 7.57336V7.32617H24.8881L25.2983 7.36825H25.5455L25.8348 7.4524H26.1661L26.4133 7.49447L26.7447 7.61544L26.9918 7.69959C27.5967 7.94152 28.191 8.29915 28.638 8.7725C29.5426 9.5614 30.1264 11.1077 30.1212 12.2752C30.0896 13.669 29.59 14.521 28.7222 15.5729C27.9648 16.1987 27.8912 16.2671 26.9918 16.7299L26.7447 16.772L26.4133 16.935L26.1661 16.9771L25.9189 17.0612L25.5876 17.1033H25.3404L25.0091 17.1875H18.9082V16.9403H19.1554L19.2395 16.8561H19.2816L19.4078 16.7352V7.86789Z" fill="white"/>
<path fill-rule="evenodd" clip-rule="evenodd" d="M34.4448 12.9794L34.5289 13.1056V13.479L34.571 13.6V13.721L34.6551 13.8419L34.6972 13.9261L34.7814 14.0523L34.8234 14.1733L34.9076 14.2574L34.9497 14.3836L35.0338 14.4257L35.118 14.5467L35.2442 14.6308L35.2863 14.715C35.586 14.9043 35.8438 15.0043 36.112 15.2094H36.2329L36.3592 15.2514H36.6484L36.7694 15.3356H37.511L37.6319 15.2514H37.9212L38.0474 15.2094H38.1684C38.4314 15.0043 38.6943 14.9043 38.9941 14.715L39.0362 14.6308L39.1624 14.5467L39.2466 14.4257L39.3307 14.3836L39.3728 14.2574L39.4569 14.1733L39.499 14.0523L39.5832 13.9261L39.6252 13.8419L39.7094 13.721V13.6L39.7515 13.479V13.1056L39.8356 12.9794L39.7515 12.7743V12.4009L39.7094 12.3167V12.1905L39.6252 12.0695L39.5832 11.9486L39.499 11.8223L39.4569 11.7803L39.3728 11.6172L39.3307 11.5751L39.2466 11.4489L39.1624 11.3648L39.0362 11.3227L38.9941 11.1965L38.91 11.1123L38.789 11.0703L38.668 10.9861L38.626 10.944L38.4629 10.8599L38.3419 10.7757L38.2999 10.7337H38.1789L38.0579 10.6495H37.9317L37.7687 10.6074C37.1901 10.6337 37.7319 10.497 37.1533 10.5233H36.9061L36.7852 10.6074H36.538L36.3749 10.6495H36.2487L36.1278 10.7337H36.0068L35.9647 10.7757L35.8437 10.8599L35.6807 10.944C35.4703 11.186 35.3441 10.9861 35.2705 11.3174L35.1443 11.3595L35.0601 11.4437L34.976 11.5699L34.9339 11.612L34.8497 11.775L34.8077 11.8171L34.7235 11.9433C34.4342 12.485 34.6709 12.5744 34.4763 12.9741M42.1497 12.9794C42.1339 18.6543 32.1412 18.6963 32.0938 12.9794C32.0623 7.20462 42.2128 7.24144 42.1497 12.9794Z" fill="white"/>
<path fill-rule="evenodd" clip-rule="evenodd" d="M55.1288 16.7302V16.7723H55.2129V16.8565L55.2971 16.9406H55.3391V16.9827H55.4654V17.1878H52.2098V16.9827H52.4149V16.9406H52.4991L52.5412 16.8565V16.5251L52.4991 16.3621L52.336 16.157C51.8785 14.6843 51.3263 13.2433 50.8108 11.7864L49.0384 16.7302V16.7723H49.1226V16.8565H49.1647V16.9406H49.2909L49.375 16.9827H49.4171V17.1878H46.1195V16.9827H46.2036L46.2457 16.9406H46.3667V16.8565H46.4508V16.7355L43.6897 9.27771V9.23564L43.6476 9.15149H43.5266L43.4425 9.10941H43.4004V8.9043H46.5718V9.10941L46.4876 9.15149H46.3614L46.3193 9.23564L46.2352 9.27771V9.36186L47.7604 14.1847H47.8446L49.4907 9.15675H52.0889L53.8192 14.1847H53.9033L55.4286 9.36186V9.27771H55.3444V9.23564H55.3023L55.2182 9.15149H55.0131V8.98845H58.2686V9.15149H58.1056L58.0214 9.23564H57.9373V9.27771H57.8952L55.134 16.7355" fill="white"/>
</g>
<defs>
<clipPath id="clip0_2442_207345">
<rect width="73.9992" height="24.3508" fill="white"/>
</clipPath>
</defs>
</svg>
