<svg width="78" height="32" viewBox="0 0 78 32" fill="none" xmlns="http://www.w3.org/2000/svg">
<path d="M11.5409 14.939C10.4165 15.6062 9.14379 15.9522 7.67337 15.9522C6.32652 15.9522 5.11558 15.6433 4.01586 14.9884C2.91613 14.3335 1.97704 13.3697 1.18622 12.0476H14.2223C13.5674 13.2956 12.6654 14.2594 11.5409 14.939ZM1.11208 3.95407C1.76698 2.76785 2.64429 1.84112 3.7193 1.14915C4.90552 0.383051 6.25238 0 7.71044 0H15.3344V3.95407H1.11208ZM0.271844 9.97168C0.0864968 9.44035 0 8.82252 0 8.15527C0 7.41388 0.11121 6.69721 0.333626 6.0176H15.3344V9.97168H0.271844Z" fill="#044A93"/>
<path d="M73.681 7.48903C73.125 7.46432 72.7667 7.62495 72.5566 7.89679C72.3589 8.16864 72.2477 8.50226 72.2477 8.91003V12.0486H70.6537V6.03097H72.1735V7.08127C72.3713 6.69822 72.5566 6.41402 72.7543 6.25338C73.0261 6.00625 73.3845 5.89505 73.8293 5.89505H74.1382V7.51374L73.681 7.48903ZM68.0836 7.48903C67.8364 7.29133 67.5646 7.19248 67.268 7.19248C66.4401 7.19248 66.0324 7.61259 66.0324 8.45283H68.479C68.4419 8.008 68.306 7.68673 68.0836 7.48903ZM65.983 9.44135C66.0447 9.99739 66.2054 10.3804 66.4154 10.5781C66.6378 10.8006 66.9715 10.9118 67.4039 10.9118C67.6511 10.9118 67.8488 10.8623 68.0341 10.7511C68.2318 10.6399 68.3678 10.4669 68.4419 10.2322H70.0606C69.8629 10.9118 69.5045 11.4184 68.9856 11.752C68.5407 12.0486 68.0218 12.1845 67.4163 12.1845C66.5019 12.1845 65.7976 11.9374 65.3033 11.4678C64.7226 10.8994 64.426 10.0592 64.426 8.88531C64.426 7.92151 64.6732 7.18012 65.1921 6.66115C65.7111 6.14217 66.4031 5.88269 67.2927 5.88269C68.0836 5.88269 68.689 6.08039 69.1339 6.46344C69.7887 7.03184 70.0977 7.92151 70.0977 9.15715V9.429H65.983V9.44135ZM63.8453 12.0362H62.276V3.95508H63.8453V12.0362ZM61.1763 12.0362H59.607V3.95508H61.1763V12.0362ZM57.0492 12.0362V11.1836C56.6167 11.8632 55.9989 12.1968 55.1834 12.1968C54.5532 12.1968 54.059 12.0115 53.7006 11.6532C53.3176 11.2948 53.1446 10.7388 53.1446 9.99739V6.03097H54.7386V9.73791C54.7386 10.1704 54.8251 10.4546 55.0351 10.6152C55.2328 10.7759 55.4552 10.8623 55.7518 10.8623C56.0854 10.8623 56.3573 10.7759 56.555 10.5905C56.8268 10.3681 56.9627 10.0098 56.9627 9.51549V6.03097H58.532V12.0486H57.0492V12.0362ZM48.5727 5.37607V7.19248H52.119V8.62583H48.5727V12.0362H46.8675V3.95508H52.6132V5.37607H48.5727ZM42.5921 12.0362H40.9117V10.3928H42.5921V12.0362ZM37.9955 8.72468C37.7484 8.56404 37.4766 8.47755 37.1429 8.47755H35.03V10.6276H37.0812C37.9338 10.6276 38.3662 10.2198 38.3662 9.44135C38.3539 9.12008 38.2427 8.88531 37.9955 8.72468ZM36.9205 5.30193H35.03V7.10598H36.9576C37.7484 7.10598 38.1438 6.80942 38.1438 6.22867C38.1562 5.6232 37.7484 5.30193 36.9205 5.30193ZM39.3424 11.2948C39.0706 11.542 38.7864 11.7397 38.4404 11.8509C38.1067 11.9621 37.5631 12.0362 36.7846 12.0362H33.3742V3.95508H37.3036C38.2056 3.95508 38.8728 4.20221 39.3053 4.67175C39.6389 5.03009 39.7996 5.46257 39.7996 5.96919C39.7996 6.48816 39.6884 6.90828 39.4412 7.20483C39.3053 7.37782 39.1076 7.53846 38.8111 7.67438C39.2559 7.83501 39.5772 8.08214 39.7749 8.41577C39.9726 8.7741 40.0714 9.18187 40.0714 9.6267C40.0591 10.2939 39.8119 10.85 39.3424 11.2948ZM32.2745 12.0362H30.5693V10.3928H32.2745V12.0362ZM27.8509 12.0362V8.40341H24.6876V12.0362H22.9824V3.95508H24.6876V7.00713H27.8509V3.95508H29.5066V12.0362H27.8509Z" fill="#7C736C"/>
<path d="M16.236 14.9398C16.3966 14.9398 16.5573 14.9398 16.5573 14.7545C16.5573 14.6062 16.4337 14.5691 16.2978 14.5691H16.0507V14.9398H16.236ZM16.063 15.5206H15.9271V14.4455H16.3349C16.582 14.4455 16.6808 14.5444 16.6808 14.7421C16.6808 14.9275 16.5573 15.0139 16.409 15.0387L16.7303 15.5206H16.582L16.2731 15.0387H16.0507V15.5206H16.063ZM15.4823 14.9892C15.4823 15.4341 15.8159 15.7924 16.2607 15.7924C16.7056 15.7924 17.0392 15.4341 17.0392 14.9892C17.0392 14.5444 16.7056 14.1984 16.2607 14.1984C15.8159 14.1984 15.4823 14.5444 15.4823 14.9892ZM17.1875 14.9892C17.1875 15.5082 16.7797 15.916 16.2607 15.916C15.7294 15.916 15.334 15.5082 15.334 14.9892C15.334 14.4703 15.7417 14.0625 16.2607 14.0625C16.792 14.0625 17.1875 14.4703 17.1875 14.9892Z" fill="#044A93"/>
<g clip-path="url(#clip0_2442_207284)">
<path fill-rule="evenodd" clip-rule="evenodd" d="M25.3203 24.4828C24.8764 24.039 24.3084 23.6263 23.6782 23.5109C23.0613 23.3955 22.3467 23.3422 21.7476 23.573C21.104 23.8171 20.536 24.1633 20.0922 24.7047C19.6794 25.2107 19.3998 25.8187 19.311 26.4667C19.2178 27.1413 19.2445 27.8469 19.4974 28.486C19.746 29.1118 20.141 29.6266 20.6647 30.0438C21.6721 30.856 23.1678 31.0202 24.3217 30.4432C24.8853 30.1592 25.338 29.742 25.7064 29.2361C26.0792 28.7168 26.2567 28.1176 26.3322 27.4919C26.4697 26.3868 26.0525 25.3039 25.3203 24.4917V24.4828ZM21.8275 25.7166C22.0316 25.4237 22.2801 25.2329 22.6352 25.1619C22.9503 25.0997 23.2787 25.2107 23.5273 25.406C24.0554 25.8143 24.224 26.5421 24.1974 27.1768C24.1752 27.7271 24.0243 28.3573 23.5672 28.7124C23.3231 28.9032 23.0701 29.0363 22.7461 29.0186C22.4177 29.0008 22.1248 28.8233 21.9207 28.5703C21.2727 27.767 21.2017 26.551 21.8275 25.7122V25.7166Z" fill="#231815"/>
<path fill-rule="evenodd" clip-rule="evenodd" d="M73.5138 25.837C73.6692 25.5573 73.8645 25.3133 74.1485 25.1624C74.4459 25.007 74.7476 25.0292 75.0672 25.0869C75.3734 25.1402 75.6353 25.3576 75.7862 25.6239C75.8128 25.6727 75.8527 25.8192 75.8927 25.8414C75.9104 25.8503 75.9681 25.8414 75.9903 25.8414H77.9342C77.7878 25.1757 77.5614 24.5632 77.051 24.0883C76.5673 23.6356 75.9016 23.4226 75.258 23.3205C74.6101 23.2185 73.8911 23.2362 73.2831 23.5203C72.6662 23.8043 72.1158 24.2525 71.7519 24.8339C71.3835 25.4242 71.2371 26.1077 71.206 26.7956C71.1794 27.4214 71.2593 28.1048 71.5256 28.6818C71.8007 29.2721 72.2135 29.8579 72.7727 30.2129C73.3363 30.5724 73.9754 30.7322 74.6456 30.71C75.298 30.6923 75.8616 30.4881 76.3365 30.0354C76.4652 29.9156 76.5806 30.1064 76.5806 30.2218V30.5147C76.5806 30.5769 76.5895 30.5636 76.6472 30.5636H77.9253C78.0097 30.5636 77.9919 30.5636 77.9919 30.4837V28.6951C77.9919 28.562 77.9919 26.6092 77.9919 26.6092H75.1959C75.1338 26.6092 75.1693 26.7645 75.1693 26.8133V28.1315C75.1693 28.1625 75.1559 28.1803 75.1915 28.1803H76.0347C75.9992 28.269 75.9903 28.3756 75.9592 28.4599C75.906 28.6019 75.8083 28.6951 75.6974 28.7883C75.6042 28.8593 75.5288 28.9081 75.4089 28.917C75.1737 28.9348 74.9429 28.9525 74.7077 28.9703C74.5524 28.9836 74.437 29.0013 74.2949 28.9436C74.1441 28.8815 74.002 28.8061 73.8822 28.6907C73.6337 28.451 73.4606 28.198 73.3452 27.874C73.1144 27.2172 73.1632 26.4539 73.5094 25.8414L73.5138 25.837Z" fill="#231815"/>
<path fill-rule="evenodd" clip-rule="evenodd" d="M66.4831 23.5771C66.2923 23.5771 64.5215 23.5682 64.5215 23.5816V30.5538C64.5215 30.5538 64.8011 30.5538 64.8144 30.5538H66.2302C66.2302 30.5538 66.4787 30.5583 66.4787 30.5494V26.6394C67.211 27.9265 67.9388 29.2135 68.6711 30.5006C68.7022 30.5538 68.6978 30.5538 68.7643 30.5538H70.655C70.7038 30.5538 70.7393 30.576 70.7393 30.5228V23.9277C70.7393 23.8922 70.757 23.5816 70.7215 23.5816H68.8664C68.8265 23.5816 68.7022 23.5549 68.7022 23.6037V27.1498C67.961 25.9604 67.2199 24.771 66.4787 23.5771H66.4831Z" fill="#231815"/>
<path fill-rule="evenodd" clip-rule="evenodd" d="M63.9183 23.5781H61.7969C61.7969 23.5781 61.7969 24.9806 61.7969 25.0605V30.5415C61.7969 30.577 61.9123 30.5549 61.9389 30.5549H63.8606C63.9183 30.5549 63.9183 30.5682 63.9183 30.5149V23.5781Z" fill="#231815"/>
<path fill-rule="evenodd" clip-rule="evenodd" d="M58.3433 23.5783H56.5858C56.5414 23.5783 56.2928 23.5428 56.2618 23.5783C56.2485 23.5916 56.2618 23.6759 56.2618 23.6892V30.5461C56.2618 30.5728 56.3106 30.5594 56.3328 30.5594H61.41C61.41 30.5594 61.41 30.3287 61.41 30.3109V28.8952V28.6022H58.4986C58.4986 28.6022 58.3433 28.6111 58.3433 28.5978V23.5783Z" fill="#231815"/>
<path fill-rule="evenodd" clip-rule="evenodd" d="M55.4153 24.4246C55.0203 23.8654 54.399 23.6391 53.7333 23.5902C53.0986 23.5414 52.4551 23.5769 51.8204 23.5769H49.5215C49.5215 23.5769 49.5215 24.9261 49.5215 25.0104V30.5359C49.5215 30.5803 49.6014 30.5581 49.6369 30.5581H51.4876C51.5497 30.5581 51.5186 30.456 51.5186 30.4072V28.0195C51.5186 28.0195 52.5083 28.0106 52.6015 28.0106C52.8945 28.0106 53.1474 28.0639 53.356 28.2902C53.5557 28.5032 53.6578 28.7962 53.7066 29.0802C53.7643 29.4175 53.822 29.7548 53.8842 30.0921C53.9108 30.2385 53.933 30.3806 53.9596 30.527C53.9685 30.5803 54.0439 30.5536 54.0927 30.5536H56.0056C55.9079 29.8835 55.8147 29.2133 55.7171 28.5432C55.6372 27.9884 55.2955 27.5668 54.8517 27.2472C55.0691 27.0298 55.291 26.8079 55.5085 26.5904C55.6683 26.4306 55.7526 26.1111 55.7926 25.8936C55.8991 25.3433 55.7215 24.8684 55.4197 24.4202L55.4153 24.4246ZM52.6903 25.1125C53.0054 25.1125 53.3427 25.1613 53.538 25.4365C53.6844 25.6495 53.6445 26.0845 53.4847 26.2797C53.3028 26.4972 53.0054 26.5593 52.7302 26.5593H51.5675C51.5053 26.5593 51.5186 26.5593 51.5186 26.4928V25.2057C51.5186 25.1658 51.4964 25.1081 51.5453 25.1081H52.6947L52.6903 25.1125Z" fill="#231815"/>
<path fill-rule="evenodd" clip-rule="evenodd" d="M49.0134 25.2499V23.5945C49.0134 23.559 48.9601 23.5767 48.929 23.5767H43.1284C43.0618 23.5767 43.0973 23.7764 43.0973 23.8297V29.1776C43.0973 29.2575 43.0929 30.5579 43.1018 30.5579H49.1687C49.222 30.5579 49.1953 30.4735 49.1953 30.4336V29.0578V28.7427H45.2454C45.1478 28.7427 45.1744 28.7249 45.1744 28.6184V27.9394C45.1744 27.8462 45.2055 27.8728 45.2942 27.8728H48.4142C48.4897 27.8728 48.5074 27.895 48.5074 27.8151V27.2382C48.5074 27.1627 48.5074 26.1375 48.5074 26.1375H45.201C45.1433 26.1375 45.1744 25.8801 45.1744 25.8313V25.2499C45.1744 25.2499 45.8135 25.2499 45.8534 25.2499H49.0178H49.0134Z" fill="#231815"/>
<path fill-rule="evenodd" clip-rule="evenodd" d="M34.3511 23.5785H31.5551C31.4929 23.5785 31.5018 23.5785 31.4841 23.6406C31.3953 23.9735 31.3021 24.3019 31.2133 24.6348C30.9781 25.4869 30.7473 26.339 30.5121 27.1911C30.3124 26.4855 30.1171 25.7754 29.9174 25.0697C29.802 24.6569 29.6866 24.2442 29.5712 23.8359C29.549 23.7516 29.5268 23.6717 29.5002 23.5874C29.4958 23.5696 29.3271 23.5829 29.3094 23.5829H26.7974C26.7042 23.5829 26.753 23.7871 26.753 23.8625V30.2445C26.753 30.3022 26.7175 30.5641 26.7841 30.5641H28.6259C28.7013 30.5641 28.7147 30.5818 28.7147 30.5108V26.5298C28.8877 27.2089 29.0608 27.8835 29.2339 28.5625C29.3538 29.0241 29.4691 29.4901 29.589 29.9516C29.5978 29.9916 29.7177 30.5641 29.7443 30.5641H31.1956C31.1956 30.5641 31.3021 30.5774 31.3198 30.5641C31.3465 30.5419 31.3598 30.4221 31.3642 30.391C31.595 29.5256 31.8258 28.6557 32.0566 27.7903C32.1675 27.3686 32.2785 26.9515 32.3894 26.5298V30.4664C32.3894 30.5153 32.3672 30.5641 32.4205 30.5641H34.2623C34.3111 30.5641 34.3511 30.5863 34.3511 30.533V23.5785Z" fill="#231815"/>
<path fill-rule="evenodd" clip-rule="evenodd" d="M19.8256 23.5778H17.1805C17.1494 23.5778 17.0474 23.7198 17.0296 23.742C16.7278 24.0704 16.4216 24.4033 16.1198 24.7317C15.7914 25.0868 15.4674 25.4418 15.1434 25.7969V23.6C15.1434 23.5556 14.9836 23.5778 14.9481 23.5778H13.0841C13.0353 23.5778 13.0619 23.8663 13.0619 23.9107V30.5235C13.0619 30.5767 13.0753 30.559 13.1329 30.559H14.9836C15.0191 30.559 15.1434 30.5856 15.1434 30.5368V28.4819C15.1434 28.4819 15.2011 28.4198 15.2144 28.4109C15.2899 28.3355 15.3698 28.2556 15.4452 28.1801C15.5606 28.0648 15.676 27.9494 15.7914 27.8384C16.2174 28.4775 16.6479 29.121 17.074 29.7601C17.2515 30.022 17.4246 30.2838 17.6021 30.5501C17.6243 30.5856 17.7397 30.5634 17.7752 30.5634H20.1718C19.3197 29.2542 18.4676 27.9449 17.611 26.6357C17.5933 26.6091 17.327 26.2407 17.3447 26.2229C17.5311 26.0277 17.7131 25.8279 17.8995 25.6327C18.512 24.9803 19.1244 24.3323 19.7324 23.6799C19.7635 23.6488 19.7946 23.6133 19.8256 23.5823V23.5778Z" fill="#231815"/>
<path fill-rule="evenodd" clip-rule="evenodd" d="M20.6732 21.8033V22.9705C20.6732 23.0415 20.6288 23.1924 20.7176 23.1924H22.4973C22.5328 23.1924 22.515 22.2471 22.515 22.1494C22.515 22.1095 22.5372 21.7988 22.4973 21.7988H20.6732V21.8033Z" fill="#231815"/>
<path fill-rule="evenodd" clip-rule="evenodd" d="M23.1986 21.8027V22.97C23.1986 23.041 23.1542 23.1919 23.243 23.1919H25.036C25.0892 23.1919 25.0582 22.9655 25.0582 22.9211V22.1844C25.0582 22.14 25.0804 21.8027 25.0404 21.8027H23.1986Z" fill="#231815"/>
<path fill-rule="evenodd" clip-rule="evenodd" d="M42.5313 23.5785H39.7353C39.6731 23.5785 39.682 23.5785 39.6642 23.6406C39.5755 23.9735 39.4823 24.3019 39.3935 24.6348C39.1627 25.4869 38.9275 26.339 38.6967 27.1911C38.497 26.4855 38.3017 25.7754 38.102 25.0697C37.9866 24.6569 37.8712 24.2442 37.7559 23.8359C37.7337 23.7516 37.7115 23.6717 37.6848 23.5874C37.6804 23.5696 37.5162 23.5829 37.494 23.5829H34.9687C34.9199 23.5829 34.9155 23.5696 34.9155 23.6184V30.2312C34.9155 30.2756 34.8888 30.5641 34.9376 30.5641H36.775C36.846 30.5641 36.8771 30.5907 36.8771 30.5197V26.5298C37.0546 27.2089 37.2277 27.8835 37.4052 28.5625C37.5251 29.0241 37.6449 29.4901 37.7647 29.9516C37.7736 29.9916 37.8979 30.5641 37.9245 30.5641H39.3758C39.3758 30.5641 39.4823 30.5774 39.5 30.5641C39.5267 30.5419 39.5355 30.4221 39.5444 30.391C39.7752 29.5256 40.0015 28.6557 40.2323 27.7903C40.3433 27.3686 40.4542 26.9515 40.5652 26.5298V30.4664C40.5652 30.5153 40.543 30.5641 40.5962 30.5641H42.4381C42.4869 30.5641 42.5268 30.5863 42.5268 30.533V23.5785H42.5313Z" fill="#231815"/>
<path fill-rule="evenodd" clip-rule="evenodd" d="M8.09461 31.1141V22.695C8.09461 22.695 4.11805 22.695 3.84733 22.695H0.208068C0.159249 22.695 0.00835268 22.6595 0.00835268 22.7261V30.9144C0.00835268 30.9588 -0.0227142 31.1141 0.0349814 31.1141H8.09461Z" fill="#231815"/>
<path fill-rule="evenodd" clip-rule="evenodd" d="M5.38752 25.8906H5.82689C5.61386 26.1436 5.40083 26.3965 5.18337 26.6495C5.12567 26.7161 5.03247 26.8892 4.94814 26.9247C4.89489 26.9469 4.77506 26.9247 4.7218 26.9247H4.49102C4.78837 26.5785 5.08573 26.2323 5.38308 25.8906H5.38752ZM6.18638 25.8906H6.63463C6.41716 26.1436 6.20413 26.3965 5.98667 26.6495C5.92897 26.7161 5.83577 26.8892 5.75144 26.9247C5.69819 26.9469 5.5828 26.9247 5.5251 26.9247H5.29876C5.59611 26.5785 5.88903 26.2323 6.18638 25.8906ZM5.92897 27.4883C6.36834 27.9854 6.3861 28.6999 5.92897 29.197C5.73369 29.41 5.40527 29.5831 5.10792 29.5609C4.94814 29.5476 4.79281 29.5298 4.65079 29.4544C4.54428 29.4011 4.3845 29.3168 4.30906 29.2369C3.89631 28.802 3.48356 28.3715 3.07082 27.9366V29.5343C3.07082 29.5343 2.64476 29.5343 2.61369 29.5343H2.01011C1.98792 29.5343 2.00123 29.2591 2.00123 29.2325V27.8922C2.00123 27.8922 2.01011 27.8212 1.99679 27.8212H1.12692C1.12692 27.8212 1.12248 27.3685 1.12248 27.3285C1.12248 27.2753 1.09585 26.9025 1.14467 26.9025H2.00123C2.00123 26.9025 2.00123 26.8403 2.00123 26.8359V24.3683C2.00123 24.2574 2.0678 24.3017 2.17432 24.3017H2.89773C3.00425 24.3017 3.07082 24.2574 3.07082 24.3683V26.9202C3.33267 26.5785 3.59008 26.2368 3.85193 25.8906C3.86968 25.8684 3.94957 25.8817 3.97176 25.8817H5.01472C4.74399 26.2057 4.4777 26.5252 4.20698 26.8492C4.08715 26.9957 3.96288 27.1377 3.84305 27.2842C3.81642 27.3197 4.11822 27.5948 4.1626 27.6436C4.37563 27.3907 4.63748 27.1333 4.99696 27.1333C5.35645 27.1333 5.65824 27.222 5.92453 27.4927L5.92897 27.4883Z" fill="black"/>
<path fill-rule="evenodd" clip-rule="evenodd" d="M5.82753 25.8907H5.62338C5.56568 25.8907 5.44141 25.8685 5.38816 25.8907C5.30827 25.9262 5.21507 26.0904 5.15737 26.157C4.93547 26.4144 4.718 26.6674 4.49609 26.9248H4.94878C4.9976 26.9248 5.13962 26.7029 5.16625 26.6718C5.38816 26.41 5.60562 26.1526 5.82753 25.8907Z" fill="white"/>
<path fill-rule="evenodd" clip-rule="evenodd" d="M6.6347 25.8906H6.19089C6.14207 25.8906 6.00005 26.1125 5.96898 26.1436C5.74708 26.4054 5.52073 26.6629 5.29883 26.9247H5.74708C5.7959 26.9247 5.93792 26.7028 5.96898 26.6717C6.19089 26.4099 6.4128 26.1525 6.6347 25.8906Z" fill="white"/>
<path fill-rule="evenodd" clip-rule="evenodd" d="M6.27659 28.3401C6.24109 27.8297 5.9748 27.3726 5.47773 27.1862C5.2647 27.1063 4.97179 27.0974 4.75876 27.1773C4.50135 27.2794 4.34157 27.4302 4.16849 27.6388C4.12854 27.5989 3.82675 27.3104 3.8445 27.2838C3.95989 27.1462 4.07529 27.0086 4.19068 26.8666C4.46584 26.5382 4.741 26.2098 5.01617 25.8769H3.9954C3.96877 25.8769 3.87113 25.8592 3.85338 25.8858C3.59153 26.2275 3.33412 26.5693 3.07227 26.9154V24.5677C3.07227 24.5277 3.10334 24.328 3.07227 24.2969C3.05896 24.2836 2.94356 24.2969 2.92137 24.2969H2.00268C2.00268 24.2969 2.00268 24.5366 2.00268 24.5499V26.6269C2.00268 26.6669 2.03375 26.871 2.00268 26.9021C1.98493 26.9199 1.85179 26.9021 1.8296 26.9021H1.15944C1.10618 26.9021 1.12393 26.9287 1.12393 26.982V27.6788V27.8208H1.98937C2.016 27.8208 2.00268 28.0915 2.00268 28.1226V29.4629C2.00268 29.4629 1.99824 29.5339 2.00712 29.5339H2.94356C3.09002 29.5339 3.07227 29.5384 3.07227 29.3963V27.9362C3.32968 28.2069 3.58709 28.4776 3.8445 28.7484C4.05309 28.9703 4.25725 29.2366 4.5191 29.383C4.80314 29.5384 5.10493 29.6005 5.42004 29.5073C5.57537 29.4629 5.70852 29.3875 5.83278 29.2809C5.96149 29.17 6.02362 29.0368 6.1257 28.9081C6.24553 28.7572 6.26328 28.5176 6.27659 28.3356V28.3401Z" fill="white"/>
<path fill-rule="evenodd" clip-rule="evenodd" d="M0.363281 26.929C0.363281 28.975 2.02758 30.6393 4.07355 30.6393C6.11953 30.6393 7.78382 28.975 7.78382 26.929C7.78382 24.883 6.11953 23.2188 4.07355 23.2188C2.02758 23.2188 0.363281 24.883 0.363281 26.929ZM0.60294 26.929C0.60294 25.0118 2.16072 23.454 4.07799 23.454C5.99526 23.454 7.55304 25.0118 7.55304 26.929C7.55304 28.8463 5.99526 30.4041 4.07799 30.4041C2.16072 30.4041 0.60294 28.8463 0.60294 26.929Z" fill="white"/>
</g>
<defs>
<clipPath id="clip0_2442_207284">
<rect width="78" height="9.31118" fill="white" transform="translate(0 21.8027)"/>
</clipPath>
</defs>
</svg>
