<svg width="46" height="60" viewBox="0 0 46 60" fill="none" xmlns="http://www.w3.org/2000/svg">
<g clip-path="url(#clip0_2442_207233)">
<path d="M39.2988 56.4277V60.0753H40.4588V57.6468H44.6804V60.0753H45.8395V56.4341L39.2988 56.4277Z" fill="#E82127"/>
<path d="M40.3291 55.2479H44.7892C45.4087 55.1237 45.8695 54.5724 45.9994 54.0391H39.1191C39.2477 54.5726 39.7152 55.1237 40.3291 55.2479Z" fill="#E82127"/>
<path d="M35.7868 60.0786C36.3717 59.8286 36.6863 59.3961 36.8068 58.8901H31.6043L31.6076 54.043L30.4414 54.0463V60.0786H35.7868Z" fill="#E82127"/>
<path d="M21.7685 55.2309H25.8876C26.5086 55.0489 27.03 54.5718 27.1571 54.043H20.6138V57.6078H25.9693V58.8588L21.7685 58.8621C21.1102 59.0472 20.5519 59.493 20.2734 60.0818L20.6138 60.0755H27.12V56.4226H21.7685V55.2309Z" fill="#E82127"/>
<path d="M11.5993 55.2426H16.058C16.6783 55.1179 17.1393 54.5671 17.2686 54.0332H10.3887C10.5171 54.5671 10.9849 55.1179 11.5993 55.2426Z" fill="#E82127"/>
<path d="M11.5993 57.6268H16.058C16.6783 57.5035 17.1393 56.9522 17.2686 56.418H10.3887C10.5171 56.9523 10.9849 57.5035 11.5993 57.6268Z" fill="#E82127"/>
<path d="M11.5993 60.0762H16.058C16.6783 59.9519 17.1393 59.4007 17.2686 58.8672H10.3887C10.5171 59.4009 10.9849 59.9519 11.5993 60.0762Z" fill="#E82127"/>
<path d="M0 54.0468C0.134036 54.574 0.586654 55.1128 1.20764 55.2478H3.08447L3.18021 55.286V60.062H4.3522V55.286L4.45867 55.2478H6.33715C6.96507 55.0847 7.40795 54.574 7.53967 54.0468V54.0352H0V54.0468Z" fill="#E82127"/>
<path d="M23.0027 42.0333L28.8587 8.82059C34.4404 8.82059 36.2011 9.43784 36.4553 11.9573C36.4553 11.9573 40.1997 10.5493 42.0882 7.6898C34.7186 4.24599 27.3138 4.09068 27.3138 4.09068L22.9929 9.39789L23.0027 9.39722L18.6818 4.08984C18.6818 4.08984 11.2769 4.24532 3.9082 7.68913C5.7951 10.5487 9.541 11.9566 9.541 11.9566C9.7967 9.43701 11.5552 8.81976 17.0995 8.81576L23.0027 42.0333Z" fill="#E82127"/>
<path d="M22.9997 2.55689C28.957 2.51095 35.7758 3.48626 42.7563 6.55436C43.6892 4.86092 43.9291 4.1125 43.9291 4.1125C36.2984 1.06803 29.1525 0.0261349 22.9989 0C16.8456 0.0261349 9.69995 1.0682 2.07031 4.1125C2.07031 4.1125 2.41068 5.03438 3.2423 6.55436C10.2214 3.48626 17.0414 2.51095 22.9989 2.55689H22.9997Z" fill="#E82127"/>
</g>
<defs>
<clipPath id="clip0_2442_207233">
<rect width="46" height="60" fill="white"/>
</clipPath>
</defs>
</svg>
