<svg width="76" height="15" viewBox="0 0 76 15" fill="none" xmlns="http://www.w3.org/2000/svg">
<g clip-path="url(#clip0_2442_207522)">
<path d="M22.2465 8.15357H29.2949V5.94711H22.2465V2.2084H30.582V0.00195312H19.7949V14.4665H30.7659V12.26H22.2465V8.15357Z" fill="#ED1112"/>
<path d="M35.4235 0.00195312H33.0332V14.4665H35.4235V0.00195312Z" fill="#ED1112"/>
<path d="M47.8047 4.1697H44.8015L40.695 8.27615V0.00195312H38.3047V14.4665H40.695V11.2181L41.9821 9.93099L45.1079 14.4665H47.9886L43.6982 8.27615L47.8047 4.1697Z" fill="#ED1112"/>
<path d="M53.2598 3.92453C50.4405 3.92453 48.4179 6.0084 48.4179 9.31808C48.4179 12.8116 50.7469 14.7116 53.3211 14.7116C55.7114 14.7116 57.3663 13.3632 57.7953 11.3407H55.4663C55.2824 12.1987 54.4856 12.8116 53.505 12.8116H53.3211C52.1566 12.8116 50.8695 11.831 50.7469 9.99228H57.8566C57.8566 9.62453 57.9179 9.31808 57.9179 8.95034C57.8566 6.0084 56.2017 3.92453 53.2598 3.92453ZM50.8082 8.09228C50.9921 6.56002 52.034 5.88582 53.1372 5.88582H53.3211C54.4856 5.88582 55.4663 6.62131 55.5275 8.09228H50.8082ZM72.1372 3.92453C70.8501 3.92453 69.5017 4.41486 68.705 5.76324C68.0921 4.53744 66.9276 3.92453 65.4566 3.92453C64.1695 3.92453 63.0663 4.53744 62.3308 5.57937V4.1697H59.9405V14.4665H62.3308V8.70518C62.3308 7.05034 63.4953 5.94711 64.7211 5.94711H64.905C66.1921 5.94711 66.6824 6.74389 66.6824 8.15357V14.4665H69.0727V8.70518C69.0727 7.05034 70.2372 5.94711 71.463 5.94711H71.6469C72.934 5.94711 73.4243 6.74389 73.4243 8.15357V14.4665H75.8146V7.78582C75.8759 5.57937 74.7114 3.92453 72.1372 3.92453ZM12.8082 0.00195312H3.73722L0.121094 3.61808H10.6017C10.7856 3.61808 10.9695 3.74066 10.9695 3.98582V9.07292L14.5856 5.45679V1.84066C14.5856 0.860018 13.7888 0.00195312 12.8082 0.00195312ZM3.73722 10.5439V5.45679L0.121094 9.07292V12.6891C0.121094 13.6697 0.917868 14.4665 1.89851 14.4665H10.9082L14.5243 10.8503H4.10496C3.92109 10.8503 3.73722 10.7278 3.73722 10.5439Z" fill="#ED1112"/>
<path d="M8.70068 6.00864V5.45703H6.00391V9.07316H8.76197V8.52155H6.61681V7.47961H8.39423V6.928H6.61681V6.00864H8.70068Z" fill="#ED1112"/>
</g>
<defs>
<clipPath id="clip0_2442_207522">
<rect width="76" height="14.7097" fill="white"/>
</clipPath>
</defs>
</svg>
