<svg fill="none" height="12" viewBox="0 0 80 12" width="80" xmlns="http://www.w3.org/2000/svg"><g fill="#034ea2"><path d="m5.31007 8.40756c.11006.27052.07516.61721.02147.82732-.09396.37295-.35167.75377-1.11409.75377-.71409 0-1.14899-.40446-1.14899-1.01378v-1.08471h-3.06846v.86146c0 2.49508 2.00537 3.24888 4.1557 3.24888 2.06712 0 3.76913-.6881 4.04027-2.55551.1396-.96651.03759-1.59947-.01074-1.83322-.48322-2.34275-4.82147-3.04137-5.1463-4.35194-.0451-.1933-.04886-.3937-.01074-.58831.08053-.35982.3302-.75115 1.04429-.75115.67114 0 1.06041.40446 1.06041 1.01379v.69336h2.85369v-.78791c0-2.437298-2.23624-2.8181256-3.85235-2.8181256-2.0349 0-3.696646.6592256-4.000002 2.4845656-.0805367.49902-.0939595.94551.026846 1.50756.496644 2.28496 4.558386 2.94681 5.148996 4.39395z"/><path d="m12.2419.377626-2.1208 11.185774h3.0899l1.5651-10.15097h.0645l1.5221 10.15097h3.0738l-2.1074-11.1884zm17.2752 0-1.4094 8.551544h-.0671l-1.4068-8.551544h-4.663l-.2524 11.185774h2.8618l.0698-10.05642h.0644l1.9087 10.05642h2.902l1.9114-10.0538h.0618l.0725 10.0538h2.859l-.2523-11.1884z"/><path d="m42.4839 8.38608c.1101.27052.0752.6172.0215.82731-.094.37295-.3517.75378-1.1141.75378-.7141 0-1.149-.40446-1.149-1.01379v-1.0847h-3.0685v.86146c0 2.49506 2.0054 3.24886 4.1557 3.24886 2.0671 0 3.7692-.6881 4.0403-2.55549.1396-.96652.0376-1.59948-.0107-1.83323-.4833-2.34274-4.8215-3.04136-5.1463-4.35193-.0451-.19331-.0489-.3937-.0108-.58832.0806-.35981.3302-.75115 1.0443-.75115.6712 0 1.0604.40447 1.0604 1.01379v.69337h2.8537v-.78792c0-2.437293-2.2362-2.81812-3.8523-2.81812-2.0349 0-3.6967.659225-4 2.48457-.0806.49901-.094.9455.0268 1.50755.4966 2.28496 4.5584 2.94682 5.149 4.39396z"/><path d="m52.0796 9.88906c.7946 0 1.0389-.53579 1.0953-.80893.0241-.12082.0268-.28365.0268-.4281v-8.273149h2.894v8.018379c.0005.24531-.0083.49062-.0269.7354-.2013 2.08794-1.8872 2.76564-3.9892 2.76564-2.1047 0-3.7906-.6777-3.992-2.76564-.008-.11031-.0295-.53054-.0268-.7354v-8.021006h2.8939v8.273146c-.0026.14708.0027.30991.0269.43073.0537.27314.3007.80893 1.098.80893zm13.9812-9.510179.1557 8.780039h-.0618l-2.6308-8.780039h-4.2416v11.067619h2.8107l-.1557-9.08469h.0617l2.8215 9.08469h4.0725v-11.067619zm9.8657 9.394619c.8269 0 1.1168-.51215 1.1678-.81419.0242-.12344.0269-.28102.0269-.42022v-1.62836h-1.1732v-1.62837h4.051v2.99934c0 .21012-.0053.36245-.0402.73539-.188 2.03811-1.9947 2.76561-4.0215 2.76561-2.0269 0-3.8309-.7275-4.0215-2.76561-.0322-.37294-.0403-.52527-.0403-.73539v-4.7065c0-.1996.0269-.55154.0484-.73539.255-2.093234 1.9865-2.7655912 4.0134-2.7655912 2.0268 0 3.804.6671042 4.0134 2.7629712.0376.35719.0269.73539.0269.73539v.37557h-2.8833v-.62771s0-.26264-.0349-.42547c-.0537-.24688-.2684-.81419-1.1436-.81419-.8322 0-1.0765.53842-1.1382.81419-.0349.14708-.0484.34668-.0484.5279v5.11359c0 .14183.0054.29941.0269.42548.0537.29941.3436.81156 1.1704.81156z"/></g></svg>