<svg width="72" height="14" viewBox="0 0 72 14" fill="none" xmlns="http://www.w3.org/2000/svg">
<g clip-path="url(#clip0_2442_207514)">
<path fill-rule="evenodd" clip-rule="evenodd" d="M25.7773 0.383202H32.9878C35.6003 0.383202 36.8195 2.15969 36.8195 3.76207C36.8195 4.91167 36.3667 5.67808 35.1825 6.37452C36.6803 6.93184 37.5163 7.94192 37.5163 9.47473C37.5163 11.3208 36.158 13.3064 32.9878 13.3064H25.7773V0.383202ZM29.7135 10.3803H32.326C33.2315 10.3803 33.6497 9.71841 33.6497 9.12611C33.6497 9.40477 33.7888 8.08105 32.4305 8.08105H29.7135V10.3799M29.7135 5.46899H31.8036C32.7791 5.46899 33.1623 5.01622 33.1623 4.38934C33.1623 4.21523 33.0928 3.37926 32.0827 3.37926C32.5355 3.37926 29.7139 3.37926 29.7139 3.37926V5.46938M41.5916 0.383202H45.7369L50.474 13.2714H46.2242L45.5974 11.3554H41.5916L41.0693 13.2714H36.8544L41.5916 0.383202ZM43.5076 4.21483L42.393 8.53421H44.7618L43.5076 4.21483ZM57.0926 4.21483H61.0638C61.0638 2.05514 59.4268 0 55.5252 0C51.2408 0 49.9171 2.36878 49.9171 4.11029C49.9171 6.89686 53.331 7.62828 53.4351 7.66326C53.9229 7.83737 56.0476 8.39469 56.6049 8.60378C57.0577 8.7433 57.4758 9.12611 57.4758 9.61386C57.4758 10.3803 56.6049 10.7285 55.8389 10.7285C55.3511 10.7285 53.7488 10.5544 53.7488 8.84746H49.6385C49.6385 11.1117 51.2059 13.6546 55.5948 13.6546C60.4365 13.6546 61.4466 10.7984 61.4466 9.26564C61.4466 8.01149 60.7152 6.6182 59.0778 5.95634C58.1023 5.53816 56.4654 5.22492 55.664 4.98085C55.2458 4.84132 53.8875 4.56266 53.8875 3.72669C53.8875 2.64704 55.629 2.78618 55.3853 2.78618C56.1863 2.78618 57.0922 3.23894 57.0922 4.21444M62.1085 0.383202H72.001V3.79665H66.0792V6.06089H71.3737V9.3352H66.0443V13.3064H62.0731L62.1081 0.383202" fill="#100D0D"/>
<path fill-rule="evenodd" clip-rule="evenodd" d="M0 0.382812V13.306H12.8882V0.382812H0ZM8.77789 9.19568H4.11029V4.4931H8.77789V9.19568ZM21.8056 9.33481H16.8593V4.35358H21.8056V9.33481Z" fill="#100D0D"/>
</g>
<defs>
<clipPath id="clip0_2442_207514">
<rect width="72" height="13.6546" fill="white"/>
</clipPath>
</defs>
</svg>
