<svg width="78" height="20" viewBox="0 0 78 20" fill="none" xmlns="http://www.w3.org/2000/svg">
<g clip-path="url(#clip0_2442_207225)">
<path d="M18.1932 12.772C15.9133 15.3056 10.6747 14.4428 6.69913 13.3066C4.37445 12.6428 4.21284 13.7691 4.7449 14.9351C5.25708 16.0415 7.1019 17.9584 10.4236 18.2419C12.4673 18.4184 14.3842 17.777 15.5155 16.9565C15.6199 16.8819 15.5553 16.7576 15.4434 16.8172C13.0939 18.0256 8.86219 17.5457 7.91989 15.9172C7.79558 15.7009 7.88508 15.5592 8.52655 15.7059C13.1883 16.78 16.5498 15.6437 18.2778 12.7994C18.3026 12.7571 18.2778 12.7298 18.2604 12.7298C18.2467 12.7314 18.2334 12.7357 18.2215 12.7425C18.2095 12.7494 18.1991 12.7586 18.1908 12.7696M3.12633 2.26003C3.0219 2.33462 3.08655 2.45645 3.19843 2.40175C5.54797 1.19342 9.7498 1.67078 10.6896 3.30179C10.8164 3.5181 10.7244 3.6623 10.0855 3.51313C5.42366 2.44154 2.0622 3.57777 0.331744 6.4196C0.289477 6.4917 0.356611 6.51656 0.421254 6.44694C2.70118 3.91341 7.93978 4.77616 11.9154 5.91239C14.24 6.57872 14.4016 5.44994 13.8671 4.28139C13.3549 3.17499 11.5101 1.26054 8.18841 0.97462C7.95719 0.95473 7.72845 0.944786 7.5022 0.944786C5.94396 0.929415 4.41787 1.38811 3.12633 2.26003ZM9.30475 0C9.14812 0 9.14315 0.161604 9.30475 0.181494C13.1759 0.678752 16.1992 4.10734 16.1992 7.01381C16.2107 7.20869 16.1815 7.40382 16.1136 7.58684C16.0456 7.76986 15.9405 7.93678 15.8047 8.07702C15.6689 8.21726 15.5054 8.32777 15.3247 8.40154C15.1439 8.47531 14.9498 8.51074 14.7547 8.50559C12.2411 8.50559 8.40969 6.79254 4.64545 6.79254C1.56494 6.79254 -0.00390625 8.18237 -0.00390625 10.062C-0.00390625 15.1614 4.30234 19.2215 9.30475 19.2215C9.45393 19.2215 9.44896 19.0549 9.30475 19.0375C5.45598 18.585 2.4078 15.1141 2.4078 12.2052C2.39637 12.0103 2.42554 11.8152 2.49346 11.6322C2.56138 11.4491 2.66657 11.2822 2.80237 11.142C2.93817 11.0017 3.10161 10.8912 3.28235 10.8175C3.46309 10.7437 3.65718 10.7083 3.85233 10.7134C6.30381 10.7134 10.1774 12.4265 13.9641 12.4265C17.0446 12.4265 18.6109 11.0366 18.6109 9.15948C18.6109 4.05762 14.3047 0 9.30475 0Z" fill="#62626B"/>
<path d="M77.2001 10.0623C77.1994 9.75923 77.1753 9.45665 77.128 9.15729C77.0816 8.85445 76.9796 8.5628 76.8271 8.29704C76.6733 8.03214 76.4531 7.81191 76.1882 7.65806C75.8532 7.47892 75.4762 7.39306 75.0967 7.40943C74.5359 7.39858 73.9799 7.51504 73.4706 7.75005C73.0201 7.95887 72.6407 8.29511 72.3792 8.71722V7.54369H70.4622V14.5401H72.593V10.5297C72.6504 10.3524 72.7343 10.1848 72.8416 10.0325C72.9497 9.88463 73.0777 9.75244 73.222 9.63963C73.3567 9.53703 73.5047 9.45338 73.6621 9.391C73.8053 9.33032 73.9591 9.29822 74.1146 9.29652C74.2454 9.29242 74.3753 9.31856 74.4943 9.3729C74.6134 9.42723 74.7182 9.5083 74.8008 9.6098C74.9925 9.90419 75.0801 10.2543 75.0494 10.6043V14.5351H77.1802L77.2001 10.0623ZM64.2217 10.3109C64.293 10.0991 64.4034 9.9026 64.5474 9.73162C64.6855 9.57251 64.8568 9.44556 65.0492 9.35966C65.2416 9.27376 65.4505 9.23099 65.6612 9.23436C65.871 9.22967 66.0792 9.27188 66.2706 9.35791C66.4621 9.44394 66.6318 9.57161 66.7676 9.73162C67.0746 10.1029 67.2316 10.5756 67.2077 11.0568C67.2108 11.3104 67.1704 11.5627 67.0884 11.8027C67.0167 12.0143 66.9062 12.2108 66.7626 12.382C66.6253 12.5403 66.4558 12.6675 66.2654 12.755C66.0735 12.8456 65.8635 12.8915 65.6513 12.8892C65.4395 12.8947 65.2293 12.8529 65.0357 12.7669C64.8422 12.6809 64.6702 12.5528 64.5324 12.392C64.2253 12.0198 64.0683 11.5462 64.0924 11.0643C64.0892 10.8106 64.1296 10.5584 64.2117 10.3184M67.2425 14.3884C67.6917 14.2075 68.0981 13.9348 68.4359 13.5879C68.7552 13.2558 69.0024 12.8614 69.1619 12.4293C69.3273 11.9881 69.4116 11.5205 69.4105 11.0494C69.4133 10.5788 69.329 10.1118 69.1619 9.67195C68.9974 9.24058 68.748 8.84659 68.4284 8.51334C68.095 8.17036 67.6959 7.89808 67.2549 7.71276C66.7523 7.5051 66.2124 7.40272 65.6687 7.41192C65.1233 7.40302 64.5819 7.50538 64.0774 7.71276C63.6344 7.89688 63.2334 8.16927 62.8989 8.51334C62.5798 8.84547 62.3326 9.2399 62.173 9.67195C61.8442 10.5617 61.8442 11.5395 62.173 12.4293C62.3326 12.8613 62.5797 13.2558 62.8989 13.5879C63.2327 13.9309 63.634 14.2009 64.0774 14.381C65.1032 14.7715 66.2367 14.7715 67.2624 14.381M60.8726 4.81375H58.7394V6.7456H60.8726V4.81375ZM60.8726 7.54866H58.7394V14.5451H60.8726V7.54866ZM56.9319 14.0603C57.1834 13.8664 57.3848 13.6151 57.5193 13.3275C57.6539 13.0399 57.7176 12.7242 57.7051 12.4069C57.7114 12.1465 57.6614 11.8878 57.5584 11.6486C57.452 11.4245 57.2924 11.2298 57.0935 11.0817C56.8382 10.8942 56.5578 10.7435 56.2606 10.6341C55.8487 10.4783 55.4287 10.3447 55.0025 10.2339C54.6685 10.1657 54.3439 10.058 54.0353 9.91312C53.9565 9.87084 53.8912 9.80704 53.8472 9.72913C53.8032 9.65122 53.7822 9.56242 53.7867 9.47305C53.7817 9.38259 53.8024 9.29255 53.8464 9.21335C53.8904 9.13416 53.9559 9.06903 54.0353 9.02552C54.215 8.92768 54.4176 8.87961 54.6221 8.88629C54.9338 8.88977 55.2418 8.95307 55.5296 9.07276C55.9057 9.23355 56.2633 9.43444 56.5962 9.67195L57.4217 8.394C57.0391 8.04606 56.5876 7.7826 56.0965 7.62077C55.6194 7.47566 55.1232 7.40357 54.6246 7.40695C54.2463 7.40369 53.87 7.46248 53.5107 7.58098C53.1881 7.68545 52.8873 7.84807 52.6231 8.06084C52.3687 8.26825 52.1645 8.53055 52.0259 8.82808C51.8873 9.12561 51.8177 9.45065 51.8225 9.77886C51.8169 10.0171 51.8627 10.2537 51.9568 10.4725C52.0561 10.6809 52.2077 10.8599 52.3969 10.9922C52.6419 11.1641 52.9086 11.3028 53.19 11.4049C53.5215 11.5292 53.9193 11.6577 54.3834 11.7903C54.7278 11.8678 55.0617 11.9863 55.3779 12.1433C55.4626 12.1831 55.5344 12.2459 55.585 12.3247C55.6356 12.4034 55.6629 12.4948 55.6639 12.5884C55.6677 12.6733 55.6487 12.7578 55.6089 12.833C55.5691 12.9082 55.51 12.9714 55.4376 13.016C55.2428 13.1245 55.0212 13.1754 54.7986 13.1627C54.3977 13.1543 54.002 13.0699 53.6326 12.9141C53.1941 12.7351 52.7771 12.5074 52.3894 12.2353L51.6311 13.5406C52.0548 13.9187 52.554 14.2026 53.0955 14.3735C53.6632 14.5624 54.2575 14.659 54.8558 14.6594C55.736 14.6594 56.4329 14.4556 56.9468 14.0478M50.6316 4.79883H48.5009V6.73068H50.6316V4.79883ZM50.6316 7.53374H48.5009V14.5302H50.6316V7.53374ZM45.2215 14.5302L47.6878 7.53374H45.6988L44.1399 12.842L42.6059 7.55115H40.408L42.8943 14.5476L45.2215 14.5302ZM39.8361 10.0548C39.8355 9.75176 39.8114 9.44919 39.764 9.14983C39.7176 8.84699 39.6156 8.55534 39.4632 8.28958C39.3091 8.02489 39.0889 7.80473 38.8242 7.6506C38.4891 7.47181 38.1123 7.38596 37.7328 7.40197C37.172 7.39112 36.616 7.50758 36.1067 7.74259C35.6564 7.95165 35.277 8.28784 35.0152 8.70976V7.53623H33.0958V14.5326H35.2266V10.5297C35.2844 10.3526 35.3682 10.185 35.4752 10.0325C35.5833 9.88463 35.7113 9.75244 35.8556 9.63963C35.9903 9.53719 36.1384 9.45355 36.2957 9.391C36.4389 9.33038 36.5926 9.29829 36.7482 9.29652C36.879 9.29242 37.0089 9.31856 37.1279 9.3729C37.247 9.42723 37.3518 9.5083 37.4344 9.6098C37.6265 9.90403 37.714 10.2543 37.683 10.6043V14.5351H39.8138L39.8361 10.0548ZM27.4694 12.6132V10.6043H31.1988V8.83159H27.4694V6.99174H31.8129V5.07232H25.2715V14.5351H31.9198V12.6157L27.4694 12.6132Z" fill="#62626B"/>
</g>
<defs>
<clipPath id="clip0_2442_207225">
<rect width="77.1992" height="19.219" fill="white"/>
</clipPath>
</defs>
</svg>
