<svg width="80" height="12" viewBox="0 0 80 12" fill="none" xmlns="http://www.w3.org/2000/svg">
<path d="M5.31007 8.40756C5.42013 8.67808 5.38523 9.02477 5.33154 9.23488C5.23758 9.60783 4.97987 9.98865 4.21745 9.98865C3.50336 9.98865 3.06846 9.58419 3.06846 8.97487V7.89016H0V8.75162C0 11.2467 2.00537 12.0005 4.1557 12.0005C6.22282 12.0005 7.92483 11.3124 8.19597 9.44499C8.33557 8.47848 8.23356 7.84552 8.18523 7.61177C7.70201 5.26902 3.36376 4.5704 3.03893 3.25983C2.99383 3.06653 2.99007 2.86613 3.02819 2.67152C3.10872 2.3117 3.35839 1.92037 4.07248 1.92037C4.74362 1.92037 5.13289 2.32483 5.13289 2.93416V3.62752H7.98658V2.83961C7.98658 0.402312 5.75034 0.0214844 4.13423 0.0214844C2.09933 0.0214844 0.437584 0.68071 0.134228 2.50605C0.0536913 3.00507 0.0402685 3.45156 0.161074 4.01361C0.657718 6.29857 4.71946 6.96042 5.31007 8.40756Z" fill="#034EA2"/>
<path d="M12.2419 0.377626L10.1211 11.5634H13.211L14.7761 1.41243H14.8406L16.3627 11.5634H19.4365L17.3291 0.375L12.2419 0.377626ZM29.5171 0.377626L28.1077 8.92917H28.0406L26.6338 0.377626H21.9708L21.7184 11.5634H24.5802L24.65 1.50698H24.7144L26.6231 11.5634H29.5251L31.4365 1.5096H31.4983L31.5708 11.5634H34.4298L34.1775 0.375L29.5171 0.377626Z" fill="#034EA2"/>
<path d="M42.4839 8.38608C42.594 8.6566 42.5591 9.00328 42.5054 9.21339C42.4114 9.58634 42.1537 9.96717 41.3913 9.96717C40.6772 9.96717 40.2423 9.56271 40.2423 8.95338V7.86868H37.1738V8.73014C37.1738 11.2252 39.1792 11.979 41.3295 11.979C43.3966 11.979 45.0987 11.2909 45.3698 9.42351C45.5094 8.45699 45.4074 7.82403 45.3591 7.59028C44.8758 5.24754 40.5376 4.54892 40.2128 3.23835C40.1677 3.04504 40.1639 2.84465 40.202 2.65003C40.2826 2.29022 40.5322 1.89888 41.2463 1.89888C41.9175 1.89888 42.3067 2.30335 42.3067 2.91267V3.60604H45.1604V2.81812C45.1604 0.380827 42.9242 0 41.3081 0C39.2732 0 37.6114 0.659225 37.3081 2.48457C37.2275 2.98358 37.2141 3.43007 37.3349 3.99212C37.8315 6.27708 41.8933 6.93894 42.4839 8.38608Z" fill="#034EA2"/>
<path d="M52.0796 9.88906C52.8742 9.88906 53.1185 9.35327 53.1749 9.08013C53.199 8.95931 53.2017 8.79648 53.2017 8.65203V0.378881H56.0957V8.39726C56.0962 8.64257 56.0874 8.88788 56.0688 9.13266C55.8675 11.2206 54.1816 11.8983 52.0796 11.8983C49.9749 11.8983 48.289 11.2206 48.0876 9.13266C48.0796 9.02235 48.0581 8.60212 48.0608 8.39726V0.376254H50.9547V8.6494C50.9521 8.79648 50.9574 8.95931 50.9816 9.08013C51.0353 9.35327 51.2823 9.88906 52.0796 9.88906ZM66.0608 0.378881L66.2165 9.15892H66.1547L63.5239 0.378881H59.2823V11.4465H62.093L61.9373 2.36181H61.999L64.8205 11.4465H68.893V0.378881H66.0608ZM75.9265 9.7735C76.7534 9.7735 77.0433 9.26135 77.0943 8.95931C77.1185 8.83587 77.1212 8.67829 77.1212 8.53909V6.91073H75.948V5.28236H79.999V8.2817C79.999 8.49182 79.9937 8.64415 79.9588 9.01709C79.7708 11.0552 77.9641 11.7827 75.9373 11.7827C73.9104 11.7827 72.1064 11.0552 71.9158 9.01709C71.8836 8.64415 71.8755 8.49182 71.8755 8.2817V3.5752C71.8755 3.3756 71.9024 3.02366 71.9239 2.83981C72.1789 0.746576 73.9104 0.0742188 75.9373 0.0742188C77.9641 0.0742188 79.7413 0.741323 79.9507 2.83719C79.9883 3.19438 79.9776 3.57258 79.9776 3.57258V3.94815H77.0943V3.32044C77.0943 3.32044 77.0943 3.0578 77.0594 2.89497C77.0057 2.64809 76.791 2.08078 75.9158 2.08078C75.0836 2.08078 74.8393 2.6192 74.7776 2.89497C74.7427 3.04205 74.7292 3.24165 74.7292 3.42287V8.53646C74.7292 8.67829 74.7346 8.83587 74.7561 8.96194C74.8098 9.26135 75.0997 9.7735 75.9265 9.7735Z" fill="#034EA2"/>
</svg>
