<svg width="70" height="50" viewBox="0 0 70 50" fill="none" xmlns="http://www.w3.org/2000/svg">
<g clip-path="url(#clip0_2436_206840)">
<path fill-rule="evenodd" clip-rule="evenodd" d="M28.8431 38.974V44.9012C28.2 44.9654 27.5422 45.001 26.8776 45.001C15.9285 45 7 36.0144 7 25C7 13.9856 15.9285 5 26.8776 5C27.5422 5 28.1991 5.03557 28.8431 5.09981V11.027C28.2 10.9341 27.5422 10.8847 26.8776 10.8847C19.1508 10.8847 12.8456 17.2308 12.8456 25.001C12.8456 32.7711 19.1508 39.1173 26.8776 39.1173C27.5422 39.1173 28.1991 39.0669 28.8431 38.975V38.974Z" fill="#221E1F"/>
<path fill-rule="evenodd" clip-rule="evenodd" d="M47.0222 21.9475H58.5024V28.0594H47.0222C48.4144 34.37 54.0274 39.1163 60.7144 39.1163C61.3791 39.1163 62.0438 39.0659 62.6869 38.974V44.9012C62.0369 44.9654 61.3791 45.001 60.7144 45.001C49.7644 45.001 40.8438 36.0144 40.8438 25.001C40.8438 13.9876 49.7654 5 60.7154 5C61.3801 5 62.0369 5.03557 62.6879 5.09981V11.027C62.0379 10.9341 61.3801 10.8847 60.7154 10.8847C54.0284 10.8847 48.4154 15.63 47.0232 21.9485L47.0222 21.9475Z" fill="#221E1F"/>
</g>
<defs>
<clipPath id="clip0_2436_206840">
<rect width="56" height="40" fill="white" transform="translate(7 5)"/>
</clipPath>
</defs>
</svg>
