<svg fill="none" height="50" viewBox="0 0 44 50" width="44" xmlns="http://www.w3.org/2000/svg" xmlns:xlink="http://www.w3.org/1999/xlink"><clipPath id="a"><path d="m0 0h44v50h-44z"/></clipPath><g clip-path="url(#a)" fill="#f00"><path d="m43.9908 19.4359c-.1972-.1728-1.9239.4176-2.2006.6169-.3636.2629-.6434.8459-1.112 1.0377-.2639.0795-.2257-.2862-.4589-.3106-.2926-.0296-.6678.4919-1.0707.3223.3371-.5851 1.2297-1.4459.5152-2.0628-.389.4919-.7293 1.006-1.2381 1.3812-.565.4176-1.3038.7208-1.89 1.1257-.7155.4929-2.3129 2.137-3.0051 2.2387-.3286.0477-.5109-.0625-.813-.1431-.0297-.0371.6095-.5681.7091-.5989.1898-.0593.389-.0148.5798-.0561.6127-.1325 1.0272-.7855 1.4883-1.2106.3297-.3031 1.1363-.6953 1.1194-1.1872-.0106-.2999-.2735-.6476-.5968-.602-.7622.318-2.1275.1982-2.7995.5437-.3753.193-1.695 1.0844-2.0469 1.3674-.7409.5968-1.1543 1.6028-2.3458 1.5455.1389-.46.6254-1.5804.3254-1.9907l-.1918-.0975c-.37-.0063-.388 1.0759-1.1247 1.0197-.388-.0286.0615-.8808-.6848-.8342-.0721.0043-.8194.2004-.8596.2375-.1908.1674-.1877.6402-.3647.9084-.3403.5141-3.8616 2.3002-4.6121 2.6118-2.4285 1.0091-4.645 1.025-7.2134.8045-1.5264-.1314-2.173-.5713-2.103-2.1814.0731-1.6939 1.4628-3.515 2.3468-4.9566.618-1.0059 1.8413-2.544 2.261-3.534.053-.1251.1018-.2152.0742-.3625-1.4596 1.8232-2.8758 3.6909-4.0492 5.7155-.1463.018-.0689-.1654-.0424-.2406.7028-1.926 2.597-4.6492 3.9358-6.2264.4155-.4898 1.184-1.0166 1.4289-1.589.1251-.2915.1314-.5978.2322-.8787.3964-1.1088 1.8772-2.24085 2.5323-3.26269.2449-.3286-.1473-.4558-.4282-.2703-.6678.70066-1.3611 1.57198-2.0988 2.18889-1.2265 1.0229-2.2695 1.732-3.3762 2.9744-.7293.8183-1.979 2.8344-2.7931 3.3209-.0732.0435-.3689.2247-.4208.1728-.0679-.0657.195-.4145.2522-.5003 1.1438-1.7289 2.5632-2.8705 3.7938-4.3842.4452-.5469.5629-1.167.9572-1.662.2406-.3032 1.1745-1.08971 1.5126-1.34517.2757-.20776.7262-.33178.9117-.51834.1833-.18338.3392-.61585.5501-.87873.547-.68158 1.3801-1.24762 1.9865-1.90376.7939-.85753 1.5115-1.88891 2.3002-2.78036.6148-.69536 1.3939-1.3674 1.9875-2.061696.1781-.208819.6456-.661438.4367-.9168965-.2056-.1430995-1.0345.4515585-1.2306.5999575-.405.306339-.8025.785455-1.1947 1.107695-3.6888 3.02523-7.4264 5.9805-10.8767 9.2887-4.36411 4.1817-8.97092 10.0583-7.02474 16.5148l-.35828-.476c-.1325-.0169-.1272-.0053-.11978.1198.03816.6922.72928 2.1189 1.27201 2.579l-.19822-1.0314c1.9059 2.9012 4.48911 4.2029 7.87381 4.6704 1.7119.2363 3.5065.2777 5.1866-.106-.5364-.4071-1.3165-.0043-1.8678-.4346-.1568-.2396.3997-.3021.5587-.318.8522-.0848 1.5338.0339 2.3956-.3043.142-.0551 1.1586-.7462.7431-.1303-.2958.4388-1.077.5278-1.0357 1.0674 1.1809.035 2.3999-.5396 3.4673-1.0176 1.1448-.512 2.2292-1.1469 3.3232-1.7596.0985-.0318.1579.0201.1166.1176-.087.2014-1.1491.9487-1.4035 1.1374-1.6176 1.1936-3.3221 2.279-4.9386 3.4768-1.8423 1.3632-3.9623 3.4058-5.9901 4.3311-1.1989.5481-2.4953.9381-3.6496 1.59-.6583.3721-1.3049.8904-1.9674 1.2879-1.30064.7802-2.98181 1.6038-4.12345 2.5461-.16748.1389-.49926.5746-.63706.6382-.36041.1653-1.07909-.4474-1.18933.5512-.14735 1.3186.742 1.2274 1.64725 1.6907.07102.0371.13038-.0191.10388.1378-.0795.4632-2.05112 1.2709-1.75007 1.627 1.31547.2078 2.69348.1421 3.77045-.7155.21201-.1695.94341-1.0345 1.11408-1.0356.25016 0 .34344.6254.2385.8003-.1696.282-1.38014.1463-1.47024.6763-.05724.335.04664.513.40069.3996.62116-.1982.6307-1.2391 1.79884-.5374.56074.336.20988.3986.22154.8883.80352-.2979.48548-.6381.61272-1.2126.124-.564 1.0632-.6095 1.519-.8629.8395-.4674 1.9355-1.5815 2.8058-2.1963 2.1858-1.5444 4.6312-2.9521 6.7321-4.6205.4802-.3816.8512-.9339 1.3187-1.3017.8491-.6699 2.0087-.8809 2.5748-1.9514.4314-.1082.83 2.0033.9338 2.3192.37 1.1151 1.1618 1.5052 1.924 2.2843.3074.3138.496.7155.8702 1.0346 1.3335 1.1363 3.4239 1.0769 4.5305 2.616 1.148 1.1512 2.5568 1.1936 4.0832 1.395.2014-.4229.9964-.4113 1.1554-.76.1855-.4071-.5851-1.0484-.0859-1.5911.1346-.1473.3403-.2629.4643-.054.2841.477.3371 1.0536.812 1.4087.2894.2162 1.4511.6932 1.308.0456-.1229-.5586-1.2794-.8554-1.3409-1.0515-.0752-.6159.3901-.918.4685-1.4543l-1.7458.1579c-.1802-.1601.7643-.5724.8332-.7134.071-.1463.0636-.8035.035-.9879-.0891-.5692-1.1608-.6265-1.5826-.919.1102-.177.4293-.018.6349-.1177.389-.1908-.1187-1.5179-.3318-1.8126-.1632-.2268-.3339-.3784-.6455-.2936-.0817.0223-.0753.1601-.1336.1972-.2353.1526-.8533-.0817-1.1533-.1145-1.4119-.1548-1.0483-.1982-2.208-.7303-.3233-.1484-1.9207-.8215-2.1624-.8555-.0647-.0095-.1293-.0053-.1929-.0042l.0784 1.0324c-.2449.2481-1.0091-.6519-1.1522-.7133-.2449-.106-.1113.5724-.1982.6338-.4834-.0084-.7611-.4918-1.1512-.7123-.1717.0085-.2322.8798-.1813 1.0536.0827.2799 1.3749 1.0579 1.571 1.4469.0392.1866-.1612.1272-.2703.1103-.9668-.1527-1.5519-1.0865-2.2324-1.6579-.83-.6953-1.8593-1.1437-2.7009-1.8284-.1029-.6138.6413-.794 1.0335-1.113.2491-.2025.7801-.7304.8914-1.0145.1209-.3052.0891-.7356.2597-1.0101.1548-.2491.671-.4707.9138-.6742.3275-.2756 1.0324-1.0653 1.1681-1.4543.0307-.0869.0753-.2056-.0541-.2099-.1229 0-1.432 1.2381-1.6705 1.4257-1.1894.9317-2.56 2.0204-3.7758 2.8927-.2014.1453-.5427.4357-.7865.4039 2.0808-1.9313 4.4234-3.6284 6.3123-5.7547.4696-.5279.8671-1.2307 1.3876-1.7087.8788-.8056 2.0034-1.0123 2.8143-2.1084.1877-.2522.5004-1.0621.7145-1.1903.3911-.2364 1.0091.2692 1.7511-.2343.3731-.2523 1.1353-.8734.9795-1.3727-.1527-.4908-1.9102-.7642-2.3681-.5332.0551-.1123.1791-.2406.2777-.3158.5353-.4103 3.3454-1.2837 4.0503-1.3484.3573-.0339.7516.0393 1.1035-.0084.671-.0923 1.0293-.7145 1.5614-1.059.5862-.3784 1.6006-.6063 2.0183-1.1564.0604-.0795.1547-.1007.1187-.2385zm-34.62952 1.2158c-.15264.3848-.30529.7685-.42189 1.166-.1378.4674-.1007 1.078-.43672 1.4289-.2491-.9381.02544-1.7395.38266-2.5949.36465-.8756.92963-2.2069 1.83917-2.5652zm17.45522 3.5605c-.795.3371-1.5296.3254-2.2748.5841-.5491.1908-.9964.6646-1.59.7515.1113-.1675.3561-.2756.5321-.3805 1.2996-.7791 2.6659-1.6398 4.2316-1.6822.2448.2332-.7685.672-.8989.7271z"/><path d="m20.7925 16.3635c1.1014-.1018 2.8313.4611 3.6285 1.2476 1.1034 1.0875-.5502 3.1248-1.3473 3.9697-1.3494 1.4309-3.0083 2.6213-5.0414 1.7839-3.5341-1.4564-.23-6.7235 2.7602-7.0002z"/><path d="m1.83676 49.8392c-.31164-.6402.40386-1.0366.71127-1.5052-.42401.0117-.80031.1029-1.23386.0817-.962487-.0477-2.146519-.7208-.477001-.7993.385841-.018.703851.0827 1.032451.0859.87345.0063 1.86986-.2385 2.58219.353.0159.2183-1.57094 1.1341-1.85078 1.3239-.24911.1696-.40917.5024-.76427.46z"/><path d="m31.886 20.2315c.1272.0031.0858.1208.054.2098-.2862.8014-.8946.8035-1.3695 1.2529-.1972.1866-.53 1.0632-.9106.6806-.1855-.1866-.159-.7431.0064-.9498.0784-.0986 2.0935-1.1967 2.2186-1.1935z"/></g></svg>