<svg fill="none" height="50" viewBox="0 0 70 50" width="70" xmlns="http://www.w3.org/2000/svg" xmlns:xlink="http://www.w3.org/1999/xlink"><clipPath id="a"><path d="m7 5h56v40h-56z"/></clipPath><g clip-path="url(#a)" clip-rule="evenodd" fill="#221e1f" fill-rule="evenodd"><path d="m28.8431 38.974v5.9272c-.6431.0642-1.3009.0998-1.9655.0998-10.9491-.001-19.8776-8.9866-19.8776-20.001s8.9285-20 19.8776-20c.6646 0 1.3215.03557 1.9655.09981v5.92719c-.6431-.0929-1.3009-.1423-1.9655-.1423-7.7268 0-14.032 6.3461-14.032 14.1163 0 7.7701 6.3052 14.1163 14.032 14.1163.6646 0 1.3215-.0504 1.9655-.1423z"/><path d="m47.0222 21.9475h11.4802v6.1119h-11.4802c1.3922 6.3106 7.0052 11.0569 13.6922 11.0569.6647 0 1.3294-.0504 1.9725-.1423v5.9272c-.65.0642-1.3078.0998-1.9725.0998-10.95 0-19.8706-8.9866-19.8706-20s8.9216-20.001 19.8716-20.001c.6647 0 1.3215.03557 1.9725.09981v5.92719c-.65-.0929-1.3078-.1423-1.9725-.1423-6.687 0-12.3 4.7453-13.6922 11.0638z"/></g></svg>