<svg fill="none" height="50" viewBox="0 0 65 50" width="65" xmlns="http://www.w3.org/2000/svg"><path d="m4.13783 14.4324c1.46569-1.4623 2.86962-2.9867 4.39705-4.377 4.88952-4.64644 10.96702-7.83158 17.55242-9.199036 5.4354-1.229901 11.0841-1.133783 16.475.280336 5.3909 1.41412 10.3678 4.10525 14.5156 7.84894 1.5924 1.41646 2.9444 3.08816 4.0006 4.94956.0975.1603.1787.3271.2632.4972s0 .0753 0 .0982c-1.2317-.8833-2.4309-1.8255-3.7048-2.6498-4.6012-3.09406-10.0695-4.615-15.596-4.33782-6.3387.41787-12.4078 2.73652-17.4258 6.65712-.3454.2891-.7825.4436-1.2316.4351h-19.11567zm57.06087 21.0413c-2.7028 3.1983-5.8317 6.0055-9.2978 8.3419-4.4577 3.0694-9.5674 5.0457-14.9201 5.7706-5.1192.7959-10.35.4407-15.3166-1.0401-4.9667-1.4808-9.5459-4.0504-13.4088-7.5243-1.78441-1.5482-3.23541-3.4474-4.26381-5.5809l.57523.458c3.66376 3.0902 8.03588 5.2109 12.71988 6.1698 5.1998.9323 10.562.3369 15.4368-1.7175 2.9691-1.1721 5.759-2.7602 8.2872-4.7172.1754-.1332.388-.2076.6077-.2127h19.3073zm-10.1493-7.4522h4.6408v1.5703c-.0454.4072.0461.8181.26 1.1668.2138.3487.5377.6151.9197.7567.4612.2009.9702.2635 1.4659.1806.4957-.083.9572-.3081 1.329-.6484.3251-.2624.5653-.6161.6903-1.0163.125-.4001.1291-.8286.0117-1.2311-.093-.2819-.2543-.536-.4693-.7393-.2151-.2034-.4771-.3495-.7624-.4253-1.2935-.4907-2.5804-.9945-3.8641-1.5179-.3835-.1536-.7588-.3273-1.1245-.5201-.6615-.2578-1.2335-.705-1.6453-1.2863-.4118-.5814-.6453-1.2715-.6718-1.9851-.0648-.8014.0986-1.6049.471-2.3164.3723-.7114.9383-1.3013 1.6317-1.7008 1.2746-.7238 2.6984-1.1407 4.1599-1.2179 1.4614-.0771 2.9208.1874 4.2637.773.7574.2728 1.4072.7843 1.8528 1.4586.4456.6742.6631 1.4752.6203 2.2839h-4.527v-1.3053c.0552-1.1221-.2828-1.6847-1.17-1.9236-.4752-.1495-.9858-.1395-1.4548.0287-.4689.1682-.8709.4854-1.1451.9037-.2317.4143-.3028.9002-.1996 1.3642.1032.4639.3735.873.7586 1.1482.4257.2878.8872.5234 1.3682.7 1.105.4253 2.2099.8048 3.3148 1.2301.3673.1537.715.3336 1.0563.5397.5986.3158 1.1092.7773 1.4852 1.3426s.6055 1.2163.6675 1.8937-.0454 1.3597-.3124 1.9847c-.267.6249-.6852 1.1726-1.2164 1.5932-1.0464.8996-2.3399 1.4623-3.7048 1.6095-1.7794.3026-3.6018.2314-5.3525-.2093-1.0215-.1815-1.9366-.7464-2.5603-1.5807-.6238-.8343-.9097-1.8758-.8001-2.9142zm-33.9674-5.4173h-4.826l-.1625-2.1165c-.0137-.3996-.1525-.7845-.3964-1.1-.244-.3155-.5807-.5453-.9621-.6567-.6935-.2584-1.45744-.2501-2.14529.0233-.68785.2735-1.25126.7929-1.58226 1.4586-1.29397 2.7163-1.93944 5.6995-1.88491 8.7115-.08461.6318.07839 1.2719.45448 1.7848.37609.513.93574.8584 1.56043.9632.64664.1295 1.31771.0396 1.90813-.2558s1.06682-.7795 1.35472-1.3766c.403-.8768.754-1.7764 1.0529-2.6923h4.9788c-.1795 1.063-.6879 2.0419-1.4527 2.7969-1.6314 1.6357-3.7958 2.6269-6.09343 2.7872-1.74891.2208-3.52461.0544-5.20301-.4874-1.08342-.3176-2.03192-.9872-2.697431-1.9045-.665517-.9173-1.0106062-2.0306-.98140537-3.1661-.04483413-1.7524.28545937-3.494.96845537-5.1065.360391-.8811.890551-1.6817 1.559891-2.3554.66935-.6738 1.46462-1.2075 2.33993-1.5702 2.70812-1.2152 5.7494-1.4543 8.6121-.6772 1.0169.2042 1.9321.7569 2.5898 1.5638.6577.807 1.0173 1.8185 1.0175 2.8623.0065.1734 0 .3468-.0195.5202l.0065-.0066zm13.8249 10.0267h-2.5999c-.195 0-.4323-.2617-.5492-.4646-2.0207-3.3909-4.028-6.7899-6.022-10.1967l-.3705-.5791c-.1235.4973-.2275.88-.325 1.2726-.715 3.0522-1.4429 6.1043-2.1026 9.1696-.1398.6346-.3575.9617-1.053.8276-.1968-.0164-.3946-.0164-.5915 0 1.053-5.0902 2.1027-10.1215 3.1589-15.1888h4.2735c.1215.0327.2349.0903.3333.1691s.1797.1771.2387.2889c1.5924 2.6367 3.1589 5.2995 4.7416 7.9166.1137.193.2404.3697.4387.6772l2.0474-9.042h1.6704zm2.1026 0 .6305-1.1221c2.5349-4.4621 5.0828-8.9242 7.6046-13.3961.0822-.1829.2199-.3347.3935-.4335.1735-.0988.3737-.1395.5717-.1161 1.7582 0 1.768 0 2.4537 1.6422l5.3395 12.8335c.0747.1701.1365.3402.2307.5921h-4.696c-.117 0-.273-.1898-.325-.3501-.4582-1.1384-.8905-2.2866-1.2999-3.4447-.0291-.1382-.1087-.2603-.2231-.3421-.1144-.0819-.2552-.1174-.3944-.0995h-5.151c-.1312.0144-.2581.0558-.3727.1216-.1146.0659-.2145.1547-.2935.2611-.6825 1.1352-1.3357 2.3096-1.9759 3.4644-.0542.1307-.15.2396-.2724.3095-.1223.0699-.2644.0968-.4036.0765-.559-.0327-1.118-.0131-1.8199-.0131v.0164zm8.4236-10.5992h-.1917l-3.0321 5.1851h5.0632z" fill="#182f75"/></svg>