<svg fill="none" height="50" viewBox="0 0 39 50" width="39" xmlns="http://www.w3.org/2000/svg" xmlns:xlink="http://www.w3.org/1999/xlink"><clipPath id="a"><path d="m0 0h39v50h-39z"/></clipPath><g clip-path="url(#a)" fill="#dc0000"><path d="m25.4467 49.9992-8.4682-.1078 4.9127-24.7597 3.4357-1.7036c4.7224-3.0571 8.7057-7.0808 12.2712-11.3578 1.7013 4.6293 1.8685 9.9095.4135 14.6272-1.4561 4.723-4.6927 8.9827-8.4451 12.1993-1.6365 1.403-3.7612 2.6089-4.8379 4.527-1.2779 2.2758-.8809 4.5862.717 6.5743z"/><path d="m7.63086 49.9998 7.68624-22.694c.0407-.4288.1298-.9655-.4399-.9612l-3.947 1.5647 1.9686-8.3362c6.2741-2.041 12.1854-5.5528 16.2226-10.74464 1.962-2.52263 3.6854-5.6875 4.2452-8.82650688.4685.33081888.6785 1.03879688.8809 1.56034688.463 1.19935.9535 2.81573 1.1206 4.08297 1.135 8.64873-8.3296 15.34263-15.2087 18.78123l-4.6146 25.3007-.1595.2748h-7.75334z"/><path d="m11.0405 20.7988-1.44728 7.7393c-2.41179.9709-5.00285 3.1012-4.33089 5.9504.32663 1.3847 1.37581 2.0452 2.69993 2.4192.65876.1853 1.54518.3954 2.19734.2704l-1.65625 6.1347c-4.02736-.3491-7.08581-3.0969-8.056908-6.9073-1.010687-3.9666-.322232-6.9978 2.238028-10.1616 2.09176-2.5852 5.29429-4.2145 8.35493-5.444z"/></g></svg>