<svg fill="none" height="50" viewBox="0 0 50 50" width="50" xmlns="http://www.w3.org/2000/svg" xmlns:xlink="http://www.w3.org/1999/xlink"><clipPath id="a"><path d="m0 0h50v50h-50z"/></clipPath><g clip-path="url(#a)"><g fill="#bd0f33"><path d="m25 0c-13.8077 0-25 11.1923-25 25s11.1923 25 25 25 25-11.1923 25-25-11.1923-25-25-25zm0 45.3576c-11.2422 0-20.35757-9.1154-20.35757-20.3576s9.11537-20.36089 20.35757-20.36089 20.3576 9.11539 20.3576 20.35759-9.1154 20.3575-20.3576 20.3575z"/><path d="m12.8035 11.5908h4.6092v14.8545c0 .9437.2891 1.7579 1.6018 1.7579 1.2096 0 1.5751-1.0501 1.5751-1.8909v-14.7215h4.6092v14.2497c0 3.3331-1.492 5.9085-6.2142 5.9085-3.908 0-6.1877-1.8643-6.1877-5.9085v-14.2497"/><path d="m27.0195 38.4125v-19.6996h4.6092v15.7517h5.646v3.9479z"/><path d="m18.4263 34.4342h.4785c.2293 0 .6414.0133.6513.5384.0067.535-.432.5583-.5915.5649h-.535v-1.1033m-.0033 1.4124h.5915c.4021 0 .5217.2625.5217.5682 0 .2027.0333.5849.1064.7776h.3954v-.0697c-.0831 0-.1063-.1363-.1196-.1928-.0332-.2293-.0532-.4519-.0665-.6812-.0498-.4088-.1462-.535-.5417-.5716v-.0067c.3556-.0498.575-.3057.5882-.6646.02-.7078-.3888-.874-1.0301-.874h-.7876v3.064h.3389v-1.3459"/></g><path d="m19.0112 38.3125c1.4655 0 2.6519-1.1863 2.6519-2.6518 0-1.4656-1.1864-2.6519-2.6519-2.6519s-2.6518 1.1863-2.6518 2.6519c0 1.4655 1.1863 2.6518 2.6518 2.6518z" stroke="#bd0f33" stroke-width=".352191"/></g></svg>