<svg xmlns="http://www.w3.org/2000/svg" viewBox="0 0 682.66669 682.66669" fill="none"><g transform="matrix(1.3333333,0,0,-1.3333333,0,682.66667)"><path stroke="#1E1E1E" stroke-width="30" stroke-linecap="butt" stroke-linejoin="miter" stroke-miterlimit="10" transform="translate(470.1377,256)" d="m 0,0 c 0,-118.265 -95.873,-214.138 -214.138,-214.138 -118.265,0 -214.137,95.873 -214.137,214.138 0,118.265 95.872,214.138 214.137,214.138 C -95.873,214.138 0,118.265 0,0 Z"></path><path stroke="#1E1E1E" stroke-width="30" stroke-linecap="butt" stroke-linejoin="miter" stroke-miterlimit="10" transform="translate(407.3745,256)" d="m 0,0 c 0,-83.602 -67.772,-151.375 -151.375,-151.375 -83.602,0 -151.374,67.773 -151.374,151.375 0,83.602 67.772,151.375 151.374,151.375 C -67.772,151.375 0,83.602 0,0 Z"></path><path stroke="#BA0C2F" stroke-width="30" stroke-linecap="butt" stroke-linejoin="miter" stroke-miterlimit="10" transform="translate(297.5889,179.4053)" d="m 0,0 c -12.359,-6.726 -26.528,-10.546 -41.589,-10.546 -15.06,0 -29.228,3.82 -41.588,10.545"></path><path stroke="#BA0C2F" stroke-width="30" stroke-linecap="butt" stroke-linejoin="miter" stroke-miterlimit="10" transform="translate(214.4111,332.5947)" d="M 0,0 C 12.36,6.726 26.528,10.546 41.589,10.546 56.649,10.546 70.818,6.726 83.178,0"></path><path stroke="#BA0C2F" stroke-width="30" stroke-linecap="butt" stroke-linejoin="miter" stroke-miterlimit="10" transform="translate(179.4053,214.4111)" d="m 0,0 c -6.725,12.359 -10.546,26.528 -10.546,41.589 0,15.06 3.82,29.228 10.546,41.588"></path><path stroke="#BA0C2F" stroke-width="30" stroke-linecap="butt" stroke-linejoin="miter" stroke-miterlimit="10" transform="translate(332.5952,297.5889)" d="M 0,0 C 6.725,-12.359 10.546,-26.528 10.546,-41.589 10.546,-56.649 6.725,-70.817 0,-83.178"></path><path stroke="#1E1E1E" stroke-width="30" stroke-linecap="butt" stroke-linejoin="miter" stroke-miterlimit="10" transform="translate(256,343.1406)" d="M 0,0 V 168.859"></path><path stroke="#1E1E1E" stroke-width="30" stroke-linecap="butt" stroke-linejoin="miter" stroke-miterlimit="10" transform="translate(256,0)" d="M 0,0 V 168.859"></path><path stroke="#1E1E1E" stroke-width="30" stroke-linecap="butt" stroke-linejoin="miter" stroke-miterlimit="10" transform="translate(343.1411,256)" d="M 0,0 H 168.859"></path><path stroke="#1E1E1E" stroke-width="30" stroke-linecap="butt" stroke-linejoin="miter" stroke-miterlimit="10" transform="translate(0,256)" d="M 0,0 H 168.859"></path><path stroke="#BA0C2F" stroke-width="30" stroke-linecap="butt" stroke-linejoin="miter" stroke-miterlimit="10" transform="translate(241,256)" d="M 0,0 H 30"></path></g></svg>
