<?xml version="1.0" encoding="UTF-8" standalone="no"?>
<!-- Created with Inkscape (http://www.inkscape.org/) -->

<svg
   version="1.1"
   id="svg2142"
   xml:space="preserve"
   width="682.66669"
   height="682.66669"
   viewBox="0 0 682.66669 682.66669"
   xmlns="http://www.w3.org/2000/svg"
   xmlns:svg="http://www.w3.org/2000/svg"><defs
     id="defs2146"><clipPath
       clipPathUnits="userSpaceOnUse"
       id="clipPath2156"><path
         d="M 0,512 H 512 V 0 H 0 Z"
         id="path2154" /></clipPath></defs><g
     id="g2148"
     transform="matrix(1.3333333,0,0,-1.3333333,0,682.66667)"><g
       id="g2150"><g
         id="g2152"
         clip-path="url(#clipPath2156)"><g
           id="g2158"
           transform="translate(470.1377,256)"><path
             d="m 0,0 c 0,-118.265 -95.873,-214.138 -214.138,-214.138 -118.265,0 -214.137,95.873 -214.137,214.138 0,118.265 95.872,214.138 214.137,214.138 C -95.873,214.138 0,118.265 0,0 Z"
             style="fill:none;stroke:#000000;stroke-width:30;stroke-linecap:butt;stroke-linejoin:miter;stroke-miterlimit:10;stroke-dasharray:none;stroke-opacity:1"
             id="path2160" /></g><g
           id="g2162"
           transform="translate(407.3745,256)"><path
             d="m 0,0 c 0,-83.602 -67.772,-151.375 -151.375,-151.375 -83.602,0 -151.374,67.773 -151.374,151.375 0,83.602 67.772,151.375 151.374,151.375 C -67.772,151.375 0,83.602 0,0 Z"
             style="fill:none;stroke:#000000;stroke-width:30;stroke-linecap:butt;stroke-linejoin:miter;stroke-miterlimit:10;stroke-dasharray:none;stroke-opacity:1"
             id="path2164" /></g><g
           id="g2166"
           transform="translate(297.5889,179.4053)"><path
             d="m 0,0 c -12.359,-6.726 -26.528,-10.546 -41.589,-10.546 -15.06,0 -29.228,3.82 -41.588,10.545"
             style="fill:none;stroke:#000000;stroke-width:30;stroke-linecap:butt;stroke-linejoin:miter;stroke-miterlimit:10;stroke-dasharray:none;stroke-opacity:1"
             id="path2168" /></g><g
           id="g2170"
           transform="translate(214.4111,332.5947)"><path
             d="M 0,0 C 12.36,6.726 26.528,10.546 41.589,10.546 56.649,10.546 70.818,6.726 83.178,0"
             style="fill:none;stroke:#000000;stroke-width:30;stroke-linecap:butt;stroke-linejoin:miter;stroke-miterlimit:10;stroke-dasharray:none;stroke-opacity:1"
             id="path2172" /></g><g
           id="g2174"
           transform="translate(179.4053,214.4111)"><path
             d="m 0,0 c -6.725,12.359 -10.546,26.528 -10.546,41.589 0,15.06 3.82,29.228 10.546,41.588"
             style="fill:none;stroke:#000000;stroke-width:30;stroke-linecap:butt;stroke-linejoin:miter;stroke-miterlimit:10;stroke-dasharray:none;stroke-opacity:1"
             id="path2176" /></g><g
           id="g2178"
           transform="translate(332.5952,297.5889)"><path
             d="M 0,0 C 6.725,-12.359 10.546,-26.528 10.546,-41.589 10.546,-56.649 6.725,-70.817 0,-83.178"
             style="fill:none;stroke:#000000;stroke-width:30;stroke-linecap:butt;stroke-linejoin:miter;stroke-miterlimit:10;stroke-dasharray:none;stroke-opacity:1"
             id="path2180" /></g><g
           id="g2182"
           transform="translate(256,343.1406)"><path
             d="M 0,0 V 168.859"
             style="fill:none;stroke:#000000;stroke-width:30;stroke-linecap:butt;stroke-linejoin:miter;stroke-miterlimit:10;stroke-dasharray:none;stroke-opacity:1"
             id="path2184" /></g><g
           id="g2186"
           transform="translate(256)"><path
             d="M 0,0 V 168.859"
             style="fill:none;stroke:#000000;stroke-width:30;stroke-linecap:butt;stroke-linejoin:miter;stroke-miterlimit:10;stroke-dasharray:none;stroke-opacity:1"
             id="path2188" /></g><g
           id="g2190"
           transform="translate(343.1411,256)"><path
             d="M 0,0 H 168.859"
             style="fill:none;stroke:#000000;stroke-width:30;stroke-linecap:butt;stroke-linejoin:miter;stroke-miterlimit:10;stroke-dasharray:none;stroke-opacity:1"
             id="path2192" /></g><g
           id="g2194"
           transform="translate(0,256)"><path
             d="M 0,0 H 168.859"
             style="fill:none;stroke:#000000;stroke-width:30;stroke-linecap:butt;stroke-linejoin:miter;stroke-miterlimit:10;stroke-dasharray:none;stroke-opacity:1"
             id="path2196" /></g><g
           id="g2198"
           transform="translate(241,256)"><path
             d="M 0,0 H 30"
             style="fill:none;stroke:#000000;stroke-width:30;stroke-linecap:butt;stroke-linejoin:miter;stroke-miterlimit:10;stroke-dasharray:none;stroke-opacity:1"
             id="path2200" /></g></g></g></g></svg>
