<?xml version="1.0" encoding="UTF-8"?>
<svg id="_图层_2" data-name="图层 2" xmlns="http://www.w3.org/2000/svg" xmlns:xlink="http://www.w3.org/1999/xlink" viewBox="0 0 218.86 207.99">
  <defs>
    <style>
      .cls-1 {
        fill: #efefef;
      }

      .cls-1, .cls-2, .cls-3, .cls-4, .cls-5, .cls-6, .cls-7, .cls-8, .cls-9, .cls-10, .cls-11, .cls-12, .cls-13, .cls-14, .cls-15, .cls-16, .cls-17, .cls-18, .cls-19, .cls-20, .cls-21, .cls-22, .cls-23 {
        stroke-miterlimit: 10;
      }

      .cls-1, .cls-2, .cls-3, .cls-4, .cls-5, .cls-6, .cls-7, .cls-8, .cls-9, .cls-10, .cls-11, .cls-12, .cls-13, .cls-14, .cls-16, .cls-17, .cls-18, .cls-19, .cls-20, .cls-21, .cls-22, .cls-23 {
        stroke: #595757;
        stroke-width: .18px;
      }

      .cls-2 {
        fill: #727171;
      }

      .cls-3 {
        fill: #3164af;
      }

      .cls-4 {
        fill: url(#_未命名的渐变_31-6);
      }

      .cls-5 {
        fill: url(#_未命名的渐变_31-8);
      }

      .cls-6 {
        fill: url(#_未命名的渐变_31-7);
      }

      .cls-7 {
        fill: url(#_未命名的渐变_31-9);
      }

      .cls-8 {
        fill: url(#_未命名的渐变_31-4);
      }

      .cls-9 {
        fill: url(#_未命名的渐变_31-5);
      }

      .cls-10 {
        fill: url(#_未命名的渐变_31-3);
      }

      .cls-11 {
        fill: url(#_未命名的渐变_31-2);
      }

      .cls-12 {
        fill: #3e3a39;
      }

      .cls-13 {
        fill: url(#_未命名的渐变_31);
      }

      .cls-14 {
        fill: #231815;
      }

      .cls-15 {
        fill: none;
        stroke: #c30d23;
        stroke-width: 2.49px;
      }

      .cls-16 {
        fill: #898989;
      }

      .cls-17 {
        fill: #b5b5b6;
      }

      .cls-18 {
        fill: #dcdddd;
      }

      .cls-19 {
        fill: #c9caca;
      }

      .cls-20, .cls-24 {
        fill: #595757;
      }

      .cls-25 {
        fill: #c30d23;
      }

      .cls-24 {
        font-family: DengXian, DengXian;
        font-size: 8.91px;
      }

      .cls-21 {
        fill: url(#_未命名的渐变_31-10);
      }

      .cls-22 {
        fill: url(#_未命名的渐变_31-11);
      }

      .cls-23 {
        fill: #faee00;
      }
    </style>
    <linearGradient id="_未命名的渐变_31" data-name="未命名的渐变 31" x1="75.2" y1="144.32" x2="143.27" y2="144.32" gradientUnits="userSpaceOnUse">
      <stop offset="0" stop-color="#efefef"/>
      <stop offset=".18" stop-color="#fff"/>
      <stop offset=".65" stop-color="#c9caca"/>
      <stop offset=".73" stop-color="#dcdddd"/>
      <stop offset=".82" stop-color="#c9caca"/>
      <stop offset=".9" stop-color="#dcdddd"/>
      <stop offset="1" stop-color="#c9caca"/>
    </linearGradient>
    <linearGradient id="_未命名的渐变_31-2" data-name="未命名的渐变 31" x1="104.45" y1="51.83" x2="113.59" y2="51.83" xlink:href="#_未命名的渐变_31"/>
    <linearGradient id="_未命名的渐变_31-3" data-name="未命名的渐变 31" x1="104.45" y1="44.56" x2="113.59" y2="44.56" xlink:href="#_未命名的渐变_31"/>
    <linearGradient id="_未命名的渐变_31-4" data-name="未命名的渐变 31" x1="105.51" y1="36.68" x2="112.54" y2="36.68" xlink:href="#_未命名的渐变_31"/>
    <linearGradient id="_未命名的渐变_31-5" data-name="未命名的渐变 31" x1="106.13" y1="60.77" x2="111.92" y2="60.77" xlink:href="#_未命名的渐变_31"/>
    <linearGradient id="_未命名的渐变_31-6" data-name="未命名的渐变 31" x1="106.47" y1="81.28" x2="111.57" y2="81.28" xlink:href="#_未命名的渐变_31"/>
    <linearGradient id="_未命名的渐变_31-7" data-name="未命名的渐变 31" x1="106.47" y1="99.19" x2="111.57" y2="99.19" xlink:href="#_未命名的渐变_31"/>
    <linearGradient id="_未命名的渐变_31-8" data-name="未命名的渐变 31" x1="85.34" y1="75.73" x2="89.51" y2="75.73" xlink:href="#_未命名的渐变_31"/>
    <linearGradient id="_未命名的渐变_31-9" data-name="未命名的渐变 31" x1="85.34" y1="72.47" x2="89.51" y2="72.47" xlink:href="#_未命名的渐变_31"/>
    <linearGradient id="_未命名的渐变_31-10" data-name="未命名的渐变 31" x1="86.39" y1="68.99" x2="88.46" y2="68.99" xlink:href="#_未命名的渐变_31"/>
    <linearGradient id="_未命名的渐变_31-11" data-name="未命名的渐变 31" x1="85.61" y1="54.41" x2="89.24" y2="54.41" xlink:href="#_未命名的渐变_31"/>
  </defs>
  <g id="word">
    <g>
      <g>
        <line class="cls-15" x1="51.8" y1="105.35" x2="62.16" y2="105.35"/>
        <polygon class="cls-25" points="61.44 107.84 65.74 105.35 61.44 102.86 61.44 107.84"/>
      </g>
      <g>
        <line class="cls-15" x1="51.8" y1="72.53" x2="62.16" y2="72.53"/>
        <polygon class="cls-25" points="61.44 75.02 65.74 72.53 61.44 70.04 61.44 75.02"/>
      </g>
      <g>
        <g>
          <g>
            <rect class="cls-17" x="82.16" y="133.05" width="5.14" height="73.01"/>
            <rect class="cls-16" x="77.66" y="133.05" width="4.5" height="73.01"/>
            <rect class="cls-16" x="130.24" y="133.05" width="5.14" height="73.01" transform="translate(265.61 339.11) rotate(-180)"/>
            <rect class="cls-17" x="135.38" y="133.05" width="4.5" height="73.01" transform="translate(275.26 339.11) rotate(-180)"/>
            <rect class="cls-12" x="75.98" y="206.06" width="12.99" height="1.84"/>
            <rect class="cls-12" x="128.56" y="206.06" width="12.99" height="1.84" transform="translate(270.12 413.96) rotate(-180)"/>
          </g>
          <g>
            <rect class="cls-2" x="71.99" y="81.29" width="74.49" height="2.06"/>
            <rect class="cls-16" x="76.03" y="78.15" width="66.26" height="3.13"/>
            <rect class="cls-1" x="75.2" y="83.35" width="68.07" height="37.94"/>
            <polygon class="cls-16" points="75.2 97.94 71.99 100.57 71.99 122.06 102.69 173.23 105.63 173.23 75.2 121.29 75.2 97.94"/>
            <polygon class="cls-13" points="111.11 176.17 143.27 121.29 143.27 112.48 75.2 112.48 75.2 121.29 107.36 176.17 111.11 176.17"/>
            <polygon class="cls-16" points="143.27 97.94 146.48 100.57 146.48 122.06 115.78 173.23 112.83 173.23 143.27 121.29 143.27 97.94"/>
            <rect class="cls-2" x="69.96" y="102.79" width="2.03" height="5.36"/>
            <rect class="cls-2" x="143.27" y="88.05" width="4.31" height="5.36"/>
            <polygon class="cls-2" points="101.62 171.45 95.66 171.45 95.66 167.72 99.38 167.72 101.62 171.45"/>
          </g>
          <g>
            <rect class="cls-19" x="107.46" y="188.67" width="4.15" height="12.03" transform="translate(304.21 85.15) rotate(90)"/>
            <rect class="cls-20" x="119.16" y="189.28" width="7.52" height="10.8" transform="translate(317.6 71.76) rotate(90)"/>
            <rect class="cls-16" x="123.01" y="194.07" width="7.52" height="1.21" transform="translate(321.45 67.91) rotate(90)"/>
            <rect class="cls-16" x="115.23" y="194.07" width="7.52" height="1.21" transform="translate(313.67 75.69) rotate(90)"/>
            <rect class="cls-20" x="114.71" y="181.54" width="2.9" height="1.22" transform="translate(298.31 65.99) rotate(90)"/>
            <rect class="cls-16" x="114.33" y="184.05" width="3.73" height="2.83" transform="translate(301.66 69.27) rotate(90)"/>
            <rect class="cls-20" x="117.18" y="178.62" width="11.16" height="10.09" rx="2.07" ry="2.07" transform="translate(306.43 60.91) rotate(90)"/>
            <rect class="cls-16" x="117.54" y="179.34" width="10.43" height="8.63" rx="2.63" ry="2.63" transform="translate(306.41 60.89) rotate(90)"/>
            <rect class="cls-16" x="121.38" y="174.04" width="2.75" height="5.35" transform="translate(299.47 53.95) rotate(90)"/>
            <rect class="cls-2" x="121.74" y="170.73" width="2.04" height="7.18" transform="translate(297.08 51.56) rotate(90)"/>
            <path class="cls-23" d="M125.87,173.27c0-1.56-1.4-2.83-3.13-2.83-1.73,0-3.13,1.27-3.13,2.83h6.25Z"/>
            <rect class="cls-16" x="120.1" y="192.61" width="5.28" height="4.15"/>
            <rect class="cls-12" x="116" y="181.47" width="2.48" height=".95" transform="translate(299.18 64.7) rotate(90)"/>
            <rect class="cls-16" x="120.67" y="189.32" width="4.51" height="1.91" transform="translate(313.2 67.36) rotate(90)"/>
            <rect class="cls-2" x="119.4" y="179.2" width="6.71" height="8.9" rx="2.05" ry="2.05"/>
            <rect class="cls-16" x="115.55" y="192" width="2.84" height="5.36"/>
            <rect class="cls-17" x="100.68" y="192" width="2.84" height="5.36"/>
            <rect class="cls-16" x="127.8" y="192" width="1.38" height="5.36"/>
            <rect class="cls-16" x="97" y="189.25" width="2.07" height="10.87"/>
            <rect class="cls-20" x="99.07" y="190.24" width="1.61" height="8.88"/>
            <polygon class="cls-17" points="97 198.31 94.06 196.97 94.06 192.39 97 191.05 97 198.31"/>
            <polygon class="cls-18" points="111.37 193.2 109.29 195.27 107.22 193.2 107.22 177.42 111.37 177.42 111.37 193.2"/>
            <rect class="cls-17" x="105.64" y="180.39" width="7.31" height="1.25"/>
            <rect class="cls-17" x="106.68" y="186.52" width="5.22" height="1.25"/>
            <polygon class="cls-16" points="104.6 182.24 104.6 184.14 107.27 186.52 111.31 186.52 113.98 184.14 113.98 182.24 104.6 182.24"/>
            <rect class="cls-20" x="104.8" y="181.64" width="8.99" height=".6"/>
            <rect class="cls-20" x="106.58" y="187.75" width="5.42" height=".71"/>
            <rect class="cls-16" x="107.36" y="176.17" width="3.87" height="1.25"/>
          </g>
          <g>
            <rect class="cls-20" x="123.33" y="75.91" width="5.67" height="2.14"/>
            <rect class="cls-12" x="123.33" y="71.47" width="5.67" height="4.44"/>
            <rect class="cls-2" x="129" y="73.11" width="1.89" height="2.38"/>
            <path class="cls-3" d="M128.26,70.66c0-1.16-.94-2.1-2.1-2.1s-2.1.94-2.1,2.1v.81h4.2v-.81Z"/>
            <rect class="cls-2" x="123.33" y="73.11" width="5.67" height="1.6"/>
            <rect class="cls-16" x="125.22" y="72.56" width="1.89" height="5.05"/>
          </g>
          <g>
            <rect class="cls-16" x="102.83" y="96.08" width="12.39" height="5.17"/>
            <rect class="cls-16" x="103.6" y="93.37" width="10.85" height="1.56"/>
            <rect class="cls-11" x="104.45" y="49.74" width="9.14" height="4.17"/>
            <path class="cls-16" d="M102.04.09h14.07c1.36,0,2.47,1.11,2.47,2.47v6.23h-19.01V2.56c0-1.36,1.11-2.47,2.47-2.47Z"/>
            <polygon class="cls-19" points="120.57 70.96 120.57 67.63 117.12 67.63 117.12 33.97 101.13 33.97 101.13 67.63 96.98 67.63 96.98 70.96 101.13 70.96 101.13 99.04 99.23 99.04 99.23 103.45 118.5 103.45 118.5 99.04 117.12 99.04 117.12 70.96 120.57 70.96"/>
            <rect class="cls-12" x="100.52" y="25.93" width="1.56" height="6.14"/>
            <rect class="cls-2" x="102.08" y="25.93" width="1.56" height="6.14"/>
            <rect class="cls-12" x="103.63" y="25.93" width="1.56" height="6.14"/>
            <rect class="cls-2" x="105.19" y="25.93" width="1.56" height="6.14"/>
            <rect class="cls-12" x="106.74" y="25.93" width="1.73" height="6.14"/>
            <rect class="cls-2" x="108.53" y="25.93" width="2.45" height="6.14"/>
            <rect class="cls-12" x="110.98" y="25.93" width="1.56" height="6.14"/>
            <rect class="cls-2" x="112.54" y="25.93" width="2.03" height="6.14"/>
            <rect class="cls-12" x="114.57" y="25.93" width="1.56" height="6.14"/>
            <rect class="cls-2" x="116.12" y="25.93" width="1.56" height="6.14"/>
            <rect class="cls-16" x="100.52" y="32.07" width="17.16" height="1.9"/>
            <rect class="cls-12" x="117.12" y="33.97" width="1.47" height="5.7"/>
            <rect class="cls-12" x="117.12" y="61.8" width="1.47" height="5.84"/>
            <rect class="cls-12" x="117.12" y="46.89" width="1.47" height="8.76"/>
            <rect class="cls-12" x="99.02" y="33.97" width="2.1" height="2.1"/>
            <rect class="cls-14" x="99.02" y="28.67" width="1.5" height="3.4"/>
            <rect class="cls-10" x="104.45" y="39.38" width="9.14" height="10.36"/>
            <rect class="cls-19" x="103.37" y="40.94" width="11.31" height="3.86"/>
            <rect class="cls-2" x="107.7" y="40.94" width="2.63" height="2.63"/>
            <rect class="cls-8" x="105.51" y="33.97" width="7.03" height="5.42"/>
            <rect class="cls-19" x="105.74" y="50.45" width="6.57" height="3.46"/>
            <rect class="cls-9" x="106.13" y="53.91" width="5.79" height="13.72"/>
            <rect class="cls-4" x="106.47" y="67.63" width="5.1" height="27.29"/>
            <rect class="cls-12" x="101.13" y="94.92" width="15.99" height="1.15"/>
            <rect class="cls-6" x="106.47" y="94.92" width="5.1" height="8.53"/>
            <rect class="cls-12" x="99.23" y="101.25" width="19.27" height=".88"/>
            <rect class="cls-19" x="113.59" y="50.73" width="3.56" height="2.07"/>
            <rect class="cls-19" x="101.05" y="50.73" width="3.41" height="2.07"/>
            <rect class="cls-16" x="103.63" y="67.63" width="2.84" height="1.66"/>
            <rect class="cls-16" x="111.57" y="67.63" width="2.84" height="1.66"/>
            <rect class="cls-19" x="103.63" y="69.29" width="2.84" height="1.66"/>
            <rect class="cls-19" x="111.57" y="69.29" width="2.84" height="1.66"/>
            <rect class="cls-2" x="105.19" y="8.79" width="8.09" height="17.14"/>
            <path class="cls-2" d="M106.82.95h5.38c1.31,0,2.37,1.06,2.37,2.37v5.47h-10.11V3.32c0-1.31,1.06-2.37,2.37-2.37Z"/>
            <rect class="cls-16" x="113.28" y="19.28" width="5.3" height="6.65"/>
            <rect class="cls-16" x="113.28" y="8.79" width="1.33" height="10.49"/>
            <rect class="cls-12" x="114.61" y="8.79" width="1.33" height="10.49"/>
            <rect class="cls-16" x="115.93" y="8.79" width="1.33" height="10.49"/>
            <rect class="cls-12" x="117.26" y="8.79" width="1.33" height="10.49"/>
            <rect class="cls-16" x="99.57" y="8.79" width="1.41" height="17.14"/>
            <rect class="cls-12" x="100.98" y="8.79" width="1.41" height="17.14"/>
            <rect class="cls-16" x="102.39" y="8.79" width="1.41" height="17.14"/>
            <rect class="cls-12" x="103.8" y="8.79" width="1.41" height="17.14"/>
            <rect class="cls-2" x="118.58" y="8.79" width="6.48" height="16.49"/>
            <rect class="cls-14" x="118.58" y="7.65" width="6.48" height="1.14"/>
            <rect class="cls-12" x="120.53" y="5.23" width="2.42" height="2.42"/>
            <rect class="cls-12" x="99.57" y="3.16" width="2.82" height="5.63"/>
            <rect class="cls-12" x="116.6" y="4.87" width="1.99" height="3.92"/>
            <rect class="cls-12" x="108.48" y=".09" width="1.98" height="2.42"/>
            <rect class="cls-12" x="107.18" y="9.47" width="4.41" height="9.81"/>
            <rect class="cls-2" x="117.68" y="20.74" width="3.54" height="2.85"/>
            <rect class="cls-14" x="102.39" y="7.65" width="14.21" height="1.14"/>
            <rect class="cls-19" x="96.98" y="67.63" width="6.65" height="3.32"/>
            <rect class="cls-19" x="114.41" y="67.63" width="6.16" height="3.32"/>
            <rect class="cls-12" x="119.97" y="25.28" width="4.1" height="1.24"/>
          </g>
          <g>
            <rect class="cls-16" x="82.89" y="56.54" width="9.07" height="12.45" rx="2.39" ry="2.39"/>
            <rect class="cls-16" x="94.26" y="71.92" width="6.87" height="6.23"/>
            <rect class="cls-19" x="94.26" y="72.95" width="7.82" height="3.42"/>
            <rect class="cls-12" x="83.36" y="70.79" width="8.12" height="7.36"/>
            <rect class="cls-19" x="92.83" y="60.01" width="2.16" height="5.66"/>
            <path class="cls-23" d="M89.98,49.69c0-1.41-1.14-2.56-2.56-2.56s-2.56,1.14-2.56,2.56v.99h5.11v-.99Z"/>
            <rect class="cls-5" x="85.34" y="74.14" width="4.18" height="3.17"/>
            <rect class="cls-19" x="80.77" y="71.92" width="2.59" height="6.23"/>
            <rect class="cls-16" x="89.81" y="68.46" width="6.05" height="2.34"/>
            <rect class="cls-7" x="85.34" y="70.79" width="4.18" height="3.35"/>
            <rect class="cls-19" x="85.34" y="72.54" width="4.18" height="1.6"/>
            <rect class="cls-19" x="91.4" y="70.79" width="2.85" height="7.36"/>
            <rect class="cls-21" x="86.39" y="67.18" width="2.07" height="3.61"/>
            <rect class="cls-19" x="83.59" y="57.04" width="7.66" height="10.14" rx="2.58" ry="2.58"/>
            <rect class="cls-16" x="84.01" y="57.76" width="6.83" height="9.03" rx="2.58" ry="2.58"/>
            <rect class="cls-22" x="85.61" y="52.23" width="3.64" height="4.36"/>
            <rect class="cls-12" x="84.4" y="50.67" width="6.05" height="1.56"/>
            <rect class="cls-12" x="91.96" y="60.96" width=".87" height="3.89"/>
            <rect class="cls-16" x="91.4" y="72.95" width="2.85" height="2.09"/>
            <rect class="cls-16" x="80.77" y="72.95" width="2.59" height="2.26"/>
          </g>
          <rect class="cls-19" x="100.52" y="25.93" width="17.33" height="1.18"/>
        </g>
        <text class="cls-24" transform="translate(0 108.39)"><tspan x="0" y="0">冷却水出口</tspan></text>
        <text class="cls-24" transform="translate(24.9 171.1)"><tspan x="0" y="0">冷却水进口</tspan></text>
        <g>
          <line class="cls-15" x1="76.7" y1="168.06" x2="87.06" y2="168.06"/>
          <polygon class="cls-25" points="86.33 170.55 90.64 168.06 86.33 165.58 86.33 170.55"/>
        </g>
        <text class="cls-24" transform="translate(24.9 196.75)"><tspan x="0" y="0">取样口</tspan></text>
        <g>
          <line class="cls-15" x1="76.7" y1="193.72" x2="87.06" y2="193.72"/>
          <polygon class="cls-25" points="86.33 196.21 90.64 193.72 86.33 191.23 86.33 196.21"/>
        </g>
        <text class="cls-24" transform="translate(0 75.57)"><tspan x="0" y="0">循环进料口</tspan></text>
        <text class="cls-24" transform="translate(149.99 20.3)"><tspan x="0" y="0">分散电机</tspan></text>
        <g>
          <line class="cls-15" x1="142.68" y1="17.26" x2="132.32" y2="17.26"/>
          <polygon class="cls-25" points="133.04 14.78 128.74 17.26 133.04 19.75 133.04 14.78"/>
        </g>
        <text class="cls-24" transform="translate(174.32 93.16)"><tspan x="0" y="0">进料口</tspan></text>
        <g>
          <line class="cls-15" x1="167" y1="90.12" x2="156.64" y2="90.12"/>
          <polygon class="cls-25" points="157.37 87.64 153.06 90.12 157.37 92.61 157.37 87.64"/>
        </g>
        <text class="cls-24" transform="translate(174.32 111.22)"><tspan x="0" y="0">分散模块</tspan></text>
        <g>
          <polyline class="cls-15" points="167 108.18 160.03 108.18 112.55 99.81"/>
          <polygon class="cls-25" points="113.7 97.49 109.02 99.19 112.83 102.39 113.7 97.49"/>
        </g>
        <text class="cls-24" transform="translate(174.32 198.27)"><tspan x="0" y="0">进料口</tspan></text>
        <g>
          <line class="cls-15" x1="167" y1="195.24" x2="156.64" y2="195.24"/>
          <polygon class="cls-25" points="157.37 192.75 153.06 195.24 157.37 197.72 157.37 192.75"/>
        </g>
        <text class="cls-24" transform="translate(174.32 143.84)"><tspan x="0" y="0">冷却水夹套</tspan></text>
        <g>
          <line class="cls-15" x1="167" y1="140.81" x2="136.39" y2="140.81"/>
          <polygon class="cls-25" points="137.12 138.32 132.81 140.81 137.12 143.29 137.12 138.32"/>
        </g>
      </g>
    </g>
  </g>
</svg>